<svg width="35" height="30" viewBox="0 0 46 39" fill="none" xmlns="http://www.w3.org/2000/svg">
<path d="M41.6875 0H4.3125C1.93074 0 0 2.18258 0 4.875V34.125C0 36.8174 1.93074 39 4.3125 39H41.6875C44.0693 39 46 36.8174 46 34.125V4.875C46 2.18258 44.0693 0 41.6875 0ZM41.6875 4.875V9.01926C39.673 10.8737 36.4615 13.7573 29.5957 19.8347C28.0826 21.18 25.0855 24.4123 23 24.3746C20.9149 24.4127 17.9167 21.1795 16.4043 19.8347C9.53961 13.7582 6.32725 10.874 4.3125 9.01926V4.875H41.6875ZM4.3125 34.125V15.2748C6.37118 17.1284 9.29065 19.7295 13.7405 23.6685C15.7042 25.4159 19.1432 29.2734 23 29.2499C26.8379 29.2734 30.2332 25.4719 32.2587 23.6693C36.7084 19.7304 39.6287 17.1286 41.6875 15.2749V34.125H4.3125Z" fill="#777C8C"/>
</svg>
