<svg width="40" height="40" viewBox="0 0 45 43" fill="none" xmlns="http://www.w3.org/2000/svg">
<path d="M37.5 15L26.25 5.13745C25.2187 4.21504 23.8836 3.70508 22.5 3.70508C21.1164 3.70508 19.7813 4.21504 18.75 5.13745L7.49999 15C6.90444 15.5326 6.42918 16.186 6.10588 16.9167C5.78258 17.6473 5.61864 18.4385 5.62499 19.2374V35.625C5.62499 37.1168 6.21763 38.5475 7.27252 39.6024C8.32741 40.6573 9.75815 41.25 11.25 41.25H33.75C35.2418 41.25 36.6726 40.6573 37.7275 39.6024C38.7824 38.5475 39.375 37.1168 39.375 35.625V19.2187C39.3787 18.4229 39.2135 17.6353 38.8902 16.9081C38.567 16.1809 38.0932 15.5305 37.5 15ZM26.25 37.5H18.75V28.1249C18.75 27.6277 18.9475 27.1508 19.2992 26.7991C19.6508 26.4475 20.1277 26.2499 20.625 26.2499H24.375C24.8723 26.2499 25.3492 26.4475 25.7008 26.7991C26.0525 27.1508 26.25 27.6277 26.25 28.1249V37.5ZM35.625 35.625C35.625 36.1222 35.4275 36.5991 35.0758 36.9508C34.7242 37.3024 34.2473 37.5 33.75 37.5H30V28.1249C30 26.6331 29.4074 25.2024 28.3525 24.1475C27.2976 23.0926 25.8668 22.4999 24.375 22.4999H20.625C19.1332 22.4999 17.7024 23.0926 16.6475 24.1475C15.5926 25.2024 15 26.6331 15 28.1249V37.5H11.25C10.7527 37.5 10.2758 37.3024 9.92417 36.9508C9.57254 36.5991 9.37499 36.1222 9.37499 35.625V19.2187C9.37533 18.9525 9.43236 18.6894 9.54228 18.4469C9.6522 18.2044 9.81249 17.9882 10.0125 17.8125L21.2625 7.9687C21.6047 7.6681 22.0445 7.50232 22.5 7.50232C22.9554 7.50232 23.3953 7.6681 23.7375 7.9687L34.9875 17.8125C35.1875 17.9882 35.3478 18.2044 35.4577 18.4469C35.5676 18.6894 35.6247 18.9525 35.625 19.2187V35.625Z" fill="#01294D"/>
<path d="M9.5 16.0625L15 10.5L22.4312 6.0625L29 9.5L35.5 15.0625L37 26.5V38.5L30 40L28.5 33.5L29 28.5L21.5 25.0625L18 27L18.5 33.5L16 39.0625H8.5L7 26.5L9.5 16.0625Z" fill="#01294D"/>
</svg>

