<svg width="300" height="300" viewBox="0 0 378 386" fill="none" xmlns="http://www.w3.org/2000/svg">
<path d="M291.6 204.723H224.275L247.121 149.629H314.447L291.6 204.723Z" fill="black"/>
<path d="M291.601 204.232H227.019C226.138 204.186 225.255 204.186 224.373 204.232C224.336 204.236 224.298 204.236 224.26 204.232L224.676 204.97L226.944 199.477L232.413 186.291L238.987 170.434L244.702 156.654L246.592 152.115L247.17 150.714C247.292 150.474 247.396 150.225 247.48 149.969C247.491 149.937 247.504 149.906 247.518 149.876L247.106 150.119H311.699C312.58 150.166 313.463 150.166 314.345 150.119C314.381 150.117 314.418 150.117 314.454 150.119L314.031 149.382L311.763 154.875L306.297 168.06L299.72 183.917L294.008 197.701C293.084 199.93 292.159 202.158 291.234 204.387L291.196 204.476C290.958 205.051 291.786 205.549 292.024 204.97L294.292 199.477L299.754 186.291L306.327 170.434L312.043 156.654C312.965 154.423 313.889 152.195 314.814 149.969L314.851 149.876C314.892 149.801 314.912 149.717 314.911 149.631C314.911 149.546 314.888 149.462 314.846 149.388C314.805 149.314 314.745 149.252 314.673 149.208C314.601 149.165 314.519 149.141 314.436 149.139H249.858C248.981 149.139 248.1 149.112 247.212 149.139H247.099C247.014 149.138 246.931 149.16 246.858 149.202C246.785 149.245 246.725 149.307 246.683 149.382L244.415 154.875L238.945 168.06L232.372 183.917L226.656 197.701C225.732 199.93 224.807 202.158 223.882 204.387L223.848 204.476C223.807 204.55 223.785 204.634 223.785 204.72C223.785 204.805 223.807 204.89 223.849 204.964C223.89 205.038 223.95 205.1 224.022 205.144C224.094 205.188 224.176 205.211 224.26 205.213H288.856C289.729 205.213 290.61 205.24 291.502 205.213H291.616C291.743 205.211 291.864 205.157 291.953 205.064C292.042 204.971 292.09 204.845 292.088 204.715C292.086 204.585 292.034 204.461 291.942 204.371C291.851 204.28 291.728 204.23 291.601 204.232Z" fill="black"/>
<path d="M288.032 204.723H220.707L243.549 149.629H310.875L288.032 204.723Z" fill="#18C4FF"/>
<path d="M288.036 204.232H223.451C222.569 204.186 221.686 204.186 220.805 204.232C220.767 204.236 220.729 204.236 220.691 204.232L221.13 204.966L223.398 199.473L228.864 186.287L235.441 170.43L241.164 156.654L243.054 152.115L243.632 150.714C243.754 150.474 243.858 150.225 243.942 149.969C243.953 149.937 243.966 149.906 243.98 149.876L243.564 150.119H308.13C309.012 150.166 309.895 150.166 310.776 150.119H310.89L310.463 149.382L308.195 154.875L302.725 168.06L296.152 183.917L290.436 197.701C289.514 199.93 288.59 202.158 287.666 204.387L287.628 204.476C287.39 205.051 288.214 205.549 288.456 204.97L290.724 199.477L296.189 186.291L302.778 170.434L308.493 156.654C309.418 154.423 310.343 152.195 311.268 149.969L311.306 149.876C311.346 149.801 311.367 149.717 311.366 149.631C311.365 149.546 311.342 149.462 311.301 149.388C311.259 149.314 311.199 149.252 311.127 149.208C311.055 149.165 310.974 149.141 310.89 149.139H246.297C245.42 149.139 244.54 149.112 243.651 149.139H243.538C243.454 149.138 243.372 149.16 243.299 149.202C243.227 149.245 243.167 149.307 243.126 149.382L240.858 154.875L235.392 168.06L228.815 183.917L223.103 197.701C222.176 199.93 221.251 202.158 220.329 204.387L220.291 204.476C220.251 204.551 220.23 204.635 220.231 204.72C220.232 204.806 220.254 204.89 220.296 204.964C220.338 205.038 220.397 205.1 220.469 205.143C220.541 205.187 220.623 205.211 220.707 205.213H285.284C286.161 205.213 287.042 205.24 287.93 205.213H288.036C288.163 205.213 288.285 205.161 288.375 205.069C288.465 204.977 288.516 204.853 288.516 204.723C288.516 204.593 288.465 204.468 288.375 204.376C288.285 204.284 288.163 204.232 288.036 204.232Z" fill="#18C4FF"/>
<path d="M157.573 261.017C158.279 292.699 152.535 324.186 140.707 353.483C138.39 359.212 135.793 365.206 136.549 371.351C136.627 371.776 136.644 372.21 136.602 372.641C136.224 374.976 132.852 374.744 130.731 373.799C126.93 372.095 123.256 370.11 119.739 367.858C118.099 366.8 116.435 365.631 115.449 363.925C113.634 360.775 115.539 357.749 116.507 354.228C119.531 343.158 121.312 330.956 121.867 319.488C122.117 314.308 121.924 309.113 122.245 303.936C122.925 292.98 125.87 282.295 130.886 272.585" fill="white"/>
<path d="M157.203 261.017C157.338 268.772 157.086 276.529 156.447 284.258C155.804 292.009 154.796 299.714 153.423 307.372C152.039 314.961 150.29 322.467 148.176 329.891C146.052 337.338 143.56 344.672 140.71 351.862C139.297 355.433 137.72 358.961 136.734 362.689C136.234 364.518 135.934 366.398 135.838 368.294C135.798 369.212 135.826 370.132 135.921 371.046C135.997 371.741 136.224 372.59 135.747 373.196C135.101 374.011 133.699 373.926 132.803 373.771C131.249 373.509 129.816 372.714 128.41 372.023C125.005 370.42 121.738 368.529 118.643 366.368C117.312 365.407 115.997 364.168 115.494 362.527C114.991 360.887 115.494 359.146 116.031 357.563C117.199 354 118.168 350.372 118.934 346.697C120.552 339.08 121.652 331.357 122.226 323.584C122.529 319.581 122.604 315.578 122.661 311.564C122.638 307.582 122.827 303.601 123.228 299.64C124.113 292.115 126.082 284.765 129.072 277.827C129.794 276.156 130.557 274.481 131.393 272.863C131.752 272.161 130.709 271.536 130.346 272.238C126.813 279.054 124.287 286.365 122.85 293.935C122.128 297.773 121.686 301.66 121.527 305.565C121.349 309.784 121.436 314.011 121.293 318.234C121.022 326.23 120.153 334.193 118.692 342.054C117.966 345.956 117.097 349.832 116.046 353.657C115.165 356.903 113.124 360.412 114.704 363.766C115.434 365.31 116.745 366.468 118.106 367.457C119.641 368.561 121.281 369.533 122.914 370.475C124.63 371.468 126.38 372.397 128.165 373.262C129.541 373.934 130.943 374.698 132.462 374.964C133.619 375.165 134.961 375.207 136.001 374.578C136.489 374.281 136.864 373.824 137.067 373.281C137.373 372.459 137.165 371.602 137.093 370.753C136.745 366.816 137.766 362.944 139.089 359.281C140.412 355.618 142.007 351.99 143.387 348.311C144.766 344.632 146.082 340.838 147.28 337.047C149.673 329.503 151.673 321.834 153.271 314.073C154.864 306.324 156.065 298.498 156.87 290.623C157.671 282.737 158.057 274.813 158.027 266.884C158.027 264.928 157.996 262.973 157.936 261.017C157.917 260.932 157.87 260.856 157.803 260.801C157.736 260.747 157.653 260.717 157.567 260.717C157.482 260.717 157.399 260.747 157.332 260.801C157.265 260.856 157.218 260.932 157.199 261.017H157.203Z" fill="black"/>
<path d="M157.203 261.017C157.338 268.772 157.086 276.529 156.447 284.258C155.804 292.009 154.796 299.714 153.423 307.372C152.039 314.961 150.29 322.467 148.176 329.891C146.052 337.339 143.56 344.672 140.71 351.862C139.297 355.433 137.72 358.961 136.734 362.689C136.234 364.518 135.934 366.398 135.838 368.294C135.798 369.212 135.826 370.132 135.921 371.046C135.997 371.741 136.224 372.59 135.747 373.196C135.101 374.011 133.699 373.926 132.803 373.772C131.249 373.509 129.816 372.714 128.41 372.023C125.005 370.42 121.738 368.529 118.643 366.368C117.312 365.407 115.997 364.168 115.494 362.527C114.991 360.887 115.494 359.146 116.031 357.563C117.199 354 118.168 350.372 118.934 346.697C120.552 339.08 121.652 331.357 122.226 323.584C122.529 319.581 122.604 315.578 122.661 311.564C122.638 307.582 122.827 303.601 123.228 299.64C124.113 292.115 126.082 284.765 129.072 277.827C129.794 276.156 130.557 274.481 131.393 272.863C131.752 272.161 130.709 271.536 130.346 272.238C126.813 279.054 124.287 286.365 122.85 293.935C122.128 297.773 121.686 301.661 121.527 305.565C121.349 309.784 121.436 314.011 121.293 318.234C121.022 326.23 120.153 334.193 118.692 342.054C117.966 345.956 117.097 349.832 116.046 353.657C115.165 356.903 113.124 360.412 114.704 363.766C115.434 365.31 116.745 366.468 118.106 367.457C119.641 368.561 121.281 369.533 122.914 370.475C124.63 371.468 126.38 372.397 128.165 373.262C129.541 373.934 130.943 374.698 132.462 374.964C133.619 375.165 134.961 375.207 136.001 374.578C136.489 374.281 136.864 373.824 137.067 373.281C137.373 372.459 137.165 371.602 137.093 370.753C136.745 366.816 137.766 362.944 139.089 359.281C140.412 355.618 142.007 351.99 143.387 348.311C144.766 344.632 146.082 340.838 147.28 337.047C149.673 329.503 151.673 321.834 153.271 314.073C154.864 306.324 156.065 298.498 156.87 290.623C157.671 282.737 158.057 274.813 158.027 266.884C158.027 264.928 157.996 262.973 157.936 261.017C157.917 260.932 157.87 260.856 157.803 260.801C157.736 260.747 157.653 260.717 157.567 260.717C157.482 260.717 157.399 260.747 157.332 260.801C157.265 260.856 157.218 260.932 157.199 261.017H157.203Z" fill="#C1BCBC"/>
<path d="M129.878 358.226C124.922 357.688 119.911 358.112 115.109 359.477C115.109 360.569 115.086 361.658 115.045 362.735C114.977 364.46 114.905 366.244 115.491 367.861C116.818 371.52 120.908 373.13 124.544 374.319C129.432 375.913 133.295 376.7 137.562 376.168C140.915 375.747 142.382 371.593 140.125 369.027C139.029 367.78 137.921 366.514 137.351 365.016C136.746 363.43 136.791 361.708 137.026 359.998C134.729 359.091 132.326 358.495 129.878 358.226Z" fill="#18C4FF"/>
<path d="M95.7437 363.747H93.4416V269.679H95.7437V363.747Z" fill="#A5A5A5"/>
<path d="M120.828 375.667H68.3612C68.1243 375.666 67.8974 375.569 67.7302 375.397C67.563 375.226 67.4692 374.994 67.4692 374.752V369.765C67.4692 368.095 68.1187 366.494 69.2749 365.313C70.4311 364.132 71.9992 363.469 73.6343 363.469H115.555C117.19 363.469 118.758 364.132 119.914 365.313C121.07 366.494 121.72 368.095 121.72 369.765V374.752C121.72 374.995 121.625 375.227 121.457 375.399C121.289 375.57 121.061 375.667 120.824 375.667H120.828Z" fill="#A5A5A5" stroke="#808080" stroke-width="1.69" stroke-miterlimit="10"/>
<path d="M239.811 376.35H237.509V215.245H239.811V376.35Z" fill="#A5A5A5"/>
<path d="M175.226 376.35H172.924V215.245H175.226V376.35Z" fill="#A5A5A5"/>
<path d="M162.959 210.053H328.663V215.909H162.959V210.053Z" fill="#A5A5A5"/>
<path d="M162.96 216.89H321.939C324.086 216.89 326.237 216.928 328.365 216.89H328.645C328.898 216.886 329.14 216.781 329.319 216.598C329.498 216.415 329.601 216.168 329.605 215.909V210.054C329.601 209.795 329.498 209.548 329.319 209.365C329.14 209.182 328.898 209.077 328.645 209.073H169.684C167.541 209.073 165.386 209.031 163.258 209.073H162.975C162.721 209.077 162.479 209.182 162.3 209.365C162.121 209.548 162.019 209.795 162.015 210.054V215.909C162.015 217.167 163.935 217.171 163.935 215.909V210.054L162.975 211.034H321.939C324.071 211.034 326.252 211.169 328.365 211.034H328.645L327.684 210.054V215.909L328.645 214.929H169.684C167.541 214.929 165.386 214.886 163.258 214.929C163.164 214.929 163.069 214.929 162.975 214.929C161.724 214.929 161.724 216.89 162.96 216.89Z" fill="#A5A5A5"/>
<path d="M204.086 208.556C206.138 209.548 208.428 209.913 210.679 209.604C212.929 209.296 215.044 208.329 216.768 206.819C217.238 206.39 217.674 205.924 218.072 205.425C218.268 205.19 219.304 204.155 219.436 204.997C219.535 205.63 220.476 205.36 220.381 204.731C220.329 204.473 220.201 204.239 220.013 204.058C219.826 203.878 219.589 203.761 219.334 203.723C219.061 203.682 218.782 203.706 218.52 203.794C218.258 203.882 218.019 204.031 217.822 204.229C217.354 204.646 216.998 205.19 216.556 205.634C216.125 206.06 215.658 206.448 215.161 206.792C213.182 208.16 210.838 208.871 208.448 208.826C207.061 208.815 205.691 208.52 204.418 207.958C204.04 207.788 203.7 208.344 204.086 208.54V208.556Z" fill="white"/>
<path d="M222.744 201.025C221.482 199.419 219.651 198.386 217.649 198.149C217.543 198.15 217.441 198.194 217.366 198.27C217.292 198.347 217.249 198.45 217.248 198.558C217.251 198.666 217.294 198.768 217.369 198.844C217.443 198.921 217.543 198.965 217.649 198.967C219.449 199.19 221.103 200.09 222.287 201.492C222.567 201.82 222.997 201.353 222.744 201.025Z" fill="white"/>
<path d="M220.707 195.003C219.077 194.873 217.439 194.933 215.823 195.181C215.766 195.184 215.711 195.199 215.661 195.227C215.611 195.254 215.568 195.293 215.535 195.34C215.501 195.387 215.479 195.441 215.469 195.498C215.459 195.555 215.461 195.613 215.476 195.669C215.491 195.725 215.519 195.777 215.556 195.82C215.593 195.864 215.64 195.899 215.692 195.921C215.744 195.944 215.801 195.955 215.857 195.952C215.914 195.949 215.969 195.934 216.019 195.907C217.57 195.671 219.14 195.59 220.707 195.663C221.126 195.683 221.119 195.034 220.707 195.003Z" fill="white"/>
<path d="M217.879 191.421C216.662 191.458 215.458 191.682 214.307 192.085C214.217 192.115 214.142 192.177 214.095 192.261C214.048 192.344 214.033 192.443 214.054 192.537C214.083 192.628 214.145 192.704 214.227 192.751C214.309 192.798 214.404 192.813 214.496 192.791C215.583 192.384 216.723 192.146 217.879 192.085C218.295 192.062 218.299 191.406 217.879 191.421Z" fill="white"/>
<path d="M215.645 187.376C212.311 187.971 209.233 189.586 206.819 192.008C206.407 192.417 207.042 193.066 207.446 192.649C209.757 190.334 212.658 188.729 215.819 188.017C216.231 187.92 216.05 187.307 215.645 187.376Z" fill="white"/>
<path d="M206.199 188.368C204.843 189.277 203.712 190.495 202.895 191.927C202.109 193.305 201.444 195.015 201.432 196.648C201.432 197.173 202.268 197.323 202.355 196.775C202.449 196.022 202.589 195.275 202.774 194.54C202.986 193.811 203.274 193.107 203.632 192.44C204.359 191.093 205.347 189.911 206.535 188.966C206.868 188.704 206.566 188.125 206.199 188.376V188.368Z" fill="white"/>
<path d="M123.277 206.815C123.028 208.382 123.361 209.987 124.211 211.316C136.957 216.612 148.754 223.367 160.427 230.747C172.701 238.506 187.193 246.256 189.805 262.106C194.938 293.294 195.664 325.892 189.805 357.038C189.352 359.451 188.883 362.014 189.756 364.299C190.327 365.801 191.434 367.063 192.531 368.31C194.799 370.877 193.321 375.03 189.968 375.451C185.7 375.983 181.837 375.196 176.949 373.602C173.313 372.413 169.223 370.803 167.896 367.144C167.31 365.527 167.382 363.743 167.45 362.018C168.531 334.083 156.647 300.296 157.925 271.57C154.523 272.342 161.327 272.431 157.925 271.57C144.869 268.27 117.297 262.021 105.25 255.918C101.092 253.814 97.0327 251.325 93.986 247.762C88.5882 241.447 87.0837 232.65 86.3958 224.297C85.3033 211.08 93.385 205.325 95.2788 192.205" fill="white"/>
<path d="M122.899 206.707C122.712 207.848 122.803 209.019 123.164 210.115C123.299 210.629 123.528 211.112 123.837 211.54C124.215 211.968 125.02 212.138 125.534 212.362C128.18 213.52 130.826 214.759 133.423 216.037C138.563 218.553 143.583 221.313 148.543 224.197C153.275 226.949 157.894 229.875 162.529 232.777C166.188 235.066 169.866 237.336 173.358 239.88C180.302 244.936 186.619 251.363 188.758 260.056C189.423 262.758 189.752 265.56 190.153 268.309C190.599 271.371 191 274.446 191.355 277.534C192.053 283.579 192.571 289.643 192.909 295.726C193.588 307.836 193.462 319.979 192.531 332.072C192.054 338.137 191.35 344.176 190.418 350.187C189.96 353.124 189.329 356.039 188.906 358.98C188.528 361.597 188.682 364.095 190.202 366.314C191.415 368.101 193.487 369.522 192.984 371.969C192.808 372.836 192.343 373.613 191.669 374.169C190.75 374.906 189.605 374.98 188.482 375.045C185.853 375.144 183.224 374.839 180.684 374.138C178.191 373.547 175.756 372.727 173.408 371.687C171.427 370.757 169.473 369.448 168.539 367.352C167.45 364.913 167.995 361.894 168.017 359.293C168.034 354.123 167.751 348.957 167.171 343.822C166.014 332.995 163.995 322.291 162.185 311.572C160.374 300.852 158.684 290.048 158.386 279.148C158.318 276.618 158.337 274.09 158.442 271.563C158.441 271.485 158.422 271.409 158.388 271.34C158.353 271.272 158.304 271.211 158.244 271.165C158.183 271.118 158.114 271.086 158.039 271.07C157.965 271.055 157.888 271.057 157.815 271.076C157.437 271.169 156.757 271.265 156.541 271.675C156.326 272.084 156.613 272.447 156.98 272.566C157.509 272.759 158.628 272.825 159.119 272.493C160.382 271.632 157.898 271.03 157.49 270.93C155.756 270.492 154.019 270.061 152.277 269.637C143.258 267.417 134.235 265.194 125.315 262.588C116.942 260.145 108.331 257.57 100.873 252.846C95.9591 249.731 92.1791 245.512 90.0434 239.98C88.0438 234.831 87.2159 229.172 86.8757 223.66C86.5658 218.665 87.7678 213.983 89.7334 209.451C91.6045 205.14 93.7629 200.959 94.9649 196.381C95.3131 195.045 95.5882 193.689 95.789 192.321C95.8835 191.665 94.9045 191.383 94.8062 192.043C94.0955 196.833 92.3605 201.233 90.3647 205.595C88.5654 209.513 86.7624 213.462 86.116 217.777C85.36 222.691 86.0744 227.856 86.9854 232.704C87.9266 237.722 89.586 242.74 92.6554 246.859C97.9474 253.938 106.751 257.539 114.768 260.326C123.254 263.275 131.96 265.576 140.658 267.788C144.642 268.803 148.633 269.779 152.625 270.764C154.269 271.15 155.917 271.57 157.562 271.987C157.852 272.117 158.159 272.207 158.473 272.254C158.492 272.254 158.529 272.292 158.541 272.288C158.552 272.284 158.669 271.678 158.601 271.628C158.601 271.628 158.552 271.667 158.488 271.628C158.157 271.586 157.821 271.586 157.49 271.628C157.445 271.628 157.327 271.57 157.293 271.59C157.259 271.609 157.214 272.223 157.312 272.261C157.571 272.211 157.824 272.135 158.068 272.034L157.441 271.543C156.98 282.378 158.288 293.213 159.939 303.894C161.671 315.049 163.867 326.124 165.398 337.31C166.154 342.714 166.717 348.118 166.947 353.564C167.057 356.135 167.087 358.706 167.004 361.285C166.921 363.863 166.724 366.472 168.138 368.715C170.557 372.575 175.883 373.938 179.936 375.034C182.443 375.757 185.034 376.128 187.639 376.138C189.646 376.115 191.729 375.968 193.086 374.273C193.617 373.606 193.968 372.809 194.105 371.961C194.241 371.112 194.159 370.242 193.865 369.437C193.487 368.402 192.712 367.669 192.024 366.835C191.105 365.727 190.293 364.519 189.998 363.072C189.401 360.138 190.421 356.954 190.924 354.074C191.453 351.03 191.923 347.975 192.334 344.91C193.95 332.674 194.684 320.332 194.53 307.986C194.371 295.636 193.453 283.309 191.782 271.076C191.075 265.827 190.599 260.349 188.543 255.436C186.809 251.465 184.333 247.878 181.255 244.875C174.972 238.556 167.065 234.163 159.607 229.489C149.586 223.212 139.297 217.33 128.475 212.613C127.875 212.355 127.274 212.098 126.672 211.841C126.059 211.582 125.194 211.393 124.657 211.003C123.61 210.25 123.523 208.046 123.678 206.904C123.746 206.402 122.994 206.174 122.922 206.692L122.899 206.707Z" fill="#C1BCBC"/>
<path d="M108.01 136.185C108.995 134.318 109.822 132.368 110.482 130.356C111.276 128.107 111.891 125.797 112.323 123.447C112.534 122.333 112.648 121.203 112.663 120.069C112.663 119.297 111.461 119.297 111.476 120.069C111.518 122.771 110.894 125.504 110.191 128.094C109.515 130.755 108.564 133.335 107.356 135.791C107.129 136.235 107.772 136.621 108.01 136.177V136.185Z" fill="white"/>
<path d="M104.071 136.783L105.746 132.232C105.861 131.815 106.078 131.435 106.377 131.128C106.804 130.761 107.413 130.742 107.972 130.742C114.579 130.792 121.029 132.804 126.536 136.532C127.484 137.18 128.512 138.169 128.233 139.296L132.584 140.693C134.266 141.233 137.309 143.727 138.605 144.939C140.064 146.309 139.463 146.387 140.117 148.297C140.873 150.551 141.652 152.825 141.935 155.191C142.336 158.534 141.758 161.915 141.066 165.204C139.666 171.841 137.802 178.367 135.487 184.732C134.466 187.534 133.343 190.329 131.688 192.791C130.418 194.679 128.486 202.577 126.883 204.178C124.615 206.46 124.506 206.259 121.349 206.726C111.177 208.239 109.371 206.826 107.685 206.726C102.328 206.406 103.678 202.04 98.7148 199.948C95.1464 198.446 91.6915 196.474 89.0984 193.536C87.0837 191.271 85.6586 188.518 84.4793 185.712C83.6733 183.938 83.1123 182.058 82.8123 180.127C82.4797 177.475 82.9522 174.788 83.5192 172.175C84.691 166.806 86.2786 161.518 86.959 156.06C87.2387 153.813 87.3672 151.528 88.04 149.374C89.1136 145.927 91.5517 143.013 94.5152 141.029C97.4787 139.045 100.941 137.941 104.453 137.424" fill="#D0D0D0"/>
<path d="M104.449 136.887L105.632 133.842C105.825 133.348 106.01 132.853 106.207 132.359C106.373 131.946 106.547 131.526 106.993 131.371C107.393 131.27 107.808 131.244 108.218 131.294C108.709 131.294 109.204 131.333 109.696 131.367C110.652 131.429 111.608 131.533 112.557 131.688C116.317 132.294 119.952 133.537 123.311 135.366C124.252 135.876 125.175 136.432 126.063 137.03C126.694 137.458 127.775 138.207 127.575 139.118C127.533 139.292 127.558 139.476 127.645 139.631C127.731 139.787 127.873 139.903 128.04 139.956L131.087 140.936C131.827 141.135 132.547 141.405 133.237 141.743C134.545 142.494 135.777 143.374 136.915 144.372C137.698 145.032 138.836 145.819 139.04 146.784C139.16 147.42 139.317 148.047 139.508 148.664C139.841 149.648 140.174 150.633 140.465 151.632C141.092 153.691 141.398 155.838 141.372 157.994C141.284 160.149 141.003 162.291 140.533 164.394C139.675 168.593 138.613 172.75 137.376 176.85C136.171 180.853 134.901 184.917 133.166 188.719C132.744 189.645 132.275 190.547 131.759 191.421C131.442 191.95 131.071 192.452 130.796 193.004C130.309 194.052 129.886 195.13 129.529 196.231C129.072 197.539 128.637 198.856 128.157 200.156C127.81 201.219 127.352 202.24 126.789 203.202C126.712 203.341 126.62 203.471 126.513 203.588C126.282 203.835 126.025 204.063 125.757 204.29C125.377 204.661 124.959 204.987 124.509 205.263C124.364 205.357 124.206 205.429 124.041 205.476C123.813 205.549 123.581 205.606 123.345 205.645C122.733 205.757 122.098 205.811 121.455 205.889C118.431 206.275 115.407 206.661 112.338 206.525C111.896 206.525 111.457 206.468 111.019 206.417L110.758 206.383C110.954 206.41 110.777 206.383 110.686 206.383L110.183 206.294L109.979 206.263L109.756 206.232L109.352 206.166L108.675 206.047C108.369 205.973 108.054 205.952 107.741 205.985H108.168C107.329 205.869 106.483 205.865 105.689 205.514C105 205.181 104.403 204.676 103.954 204.047C103.383 203.275 102.899 202.476 102.291 201.731C101.583 200.874 100.717 200.167 99.7428 199.651C98.45 198.971 97.0741 198.493 95.7851 197.786C94.4725 197.092 93.2194 196.287 92.0392 195.378C89.6577 193.451 87.7217 191.011 86.3692 188.233C84.9252 185.404 83.5342 182.246 83.3868 179.015C83.228 175.541 84.207 172.09 85.0159 168.759C85.8362 165.37 86.7094 161.989 87.2839 158.546C87.8283 155.315 87.8056 151.879 88.9811 148.791C89.9639 146.217 91.8766 143.959 94.0048 142.283C96.424 140.38 99.3497 139.195 102.321 138.535C103.077 138.362 103.833 138.219 104.611 138.103C104.787 138.053 104.936 137.933 105.026 137.772C105.115 137.61 105.139 137.418 105.092 137.238C105.04 137.061 104.923 136.91 104.765 136.818C104.607 136.726 104.421 136.7 104.245 136.744C97.5428 137.756 90.6784 141.068 87.8434 147.73C87.1583 149.458 86.7192 151.278 86.5393 153.134C86.2973 155.091 86.1046 157.04 85.7568 158.982C85.0462 162.938 83.9878 166.814 83.1108 170.728C82.2338 174.642 81.4854 178.614 82.6005 182.574C83.1297 184.353 83.8036 186.083 84.6153 187.747C85.3677 189.388 86.2728 190.952 87.3179 192.417C89.432 195.237 92.1465 197.528 95.2559 199.118C96.0119 199.535 96.8209 199.917 97.626 200.276C98.3337 200.56 99.0187 200.899 99.6748 201.291C100.584 201.924 101.356 202.742 101.943 203.692C102.463 204.587 103.098 205.406 103.833 206.128C104.835 206.947 106.057 207.435 107.337 207.529C107.505 207.559 107.676 207.573 107.847 207.571C108.078 207.571 107.692 207.571 107.624 207.494C107.716 207.555 107.821 207.59 107.93 207.599C108.116 207.649 108.308 207.691 108.494 207.737C109.021 207.893 109.558 208.014 110.1 208.1L110.323 208.131L110.557 208.162L111.102 208.22C111.514 208.259 111.93 208.282 112.345 208.297C113.448 208.336 114.553 208.312 115.653 208.224C117.301 208.096 118.945 207.93 120.567 207.703C121.368 207.591 122.17 207.444 122.967 207.317C123.439 207.249 123.904 207.142 124.358 206.996C125.371 206.641 126.15 205.916 126.898 205.155C127.564 204.466 128.1 203.659 128.482 202.774C129.522 200.508 130.236 198.103 131.09 195.764C131.367 194.897 131.729 194.062 132.171 193.27C133.129 191.756 133.978 190.173 134.712 188.534C136.23 184.905 137.541 181.189 138.639 177.406C139.788 173.605 140.78 169.758 141.614 165.864C142.457 161.915 143.126 157.882 142.396 153.856C141.978 151.914 141.43 150.004 140.756 148.139C140.416 147.116 140.416 146.028 139.724 145.163C138.926 144.163 137.834 143.353 136.828 142.573C135.776 141.683 134.624 140.923 133.396 140.311C132.677 140.009 131.941 139.752 131.192 139.539L128.407 138.643L128.871 139.481C129.321 137.246 126.91 135.918 125.337 134.973C123.496 133.868 121.556 132.946 119.542 132.22C117.481 131.467 115.353 130.92 113.188 130.588C112.137 130.42 111.08 130.305 110.017 130.24C109.012 130.116 107.994 130.131 106.993 130.283C105.806 130.541 105.481 131.584 105.103 132.63C104.634 133.975 104.167 135.325 103.7 136.679C103.53 137.165 104.271 137.354 104.456 136.887H104.449Z" fill="white"/>
<path d="M136.31 100.287C136.76 101.596 136.939 102.987 136.836 104.371C136.787 105.814 136.666 107.258 136.624 108.705C136.545 110.206 136.613 111.711 136.828 113.198C137.058 114.523 137.487 115.804 138.098 116.997C138.291 117.277 138.45 117.578 138.575 117.896C138.639 118.205 138.386 118.432 138.166 118.587C137.673 118.857 137.259 119.257 136.968 119.745C136.518 120.698 136.677 121.991 136.647 123.026C136.583 125.187 136.515 127.577 135.486 129.526C135.235 130.052 134.879 130.519 134.44 130.895C134.001 131.271 133.49 131.549 132.939 131.711C131.62 132.066 130.187 131.807 128.879 131.529C128.161 131.379 127.855 132.498 128.577 132.653C130.954 133.158 133.672 133.425 135.517 131.495C137.153 129.762 137.558 127.202 137.717 124.898C137.796 123.74 137.8 122.551 137.838 121.378C137.838 120.791 137.86 120.239 138.348 119.834C138.836 119.428 139.421 119.17 139.633 118.471C139.867 117.699 139.489 117.19 139.157 116.541C138.814 115.892 138.528 115.212 138.303 114.511C137.879 113.044 137.663 111.523 137.66 109.995C137.618 108.246 137.728 106.521 137.724 104.753C137.724 103.131 137.588 101.491 136.923 100.001C136.768 99.6575 136.167 99.9045 136.318 100.26L136.31 100.287Z" fill="white"/>
<path d="M135.014 112.268C135.008 112.269 135.001 112.272 134.996 112.276C134.991 112.28 134.986 112.285 134.983 112.291C134.98 112.297 134.979 112.304 134.979 112.31C134.979 112.317 134.981 112.324 134.984 112.33C134.988 112.338 134.995 112.344 135.003 112.348C135.011 112.352 135.021 112.352 135.029 112.349C135.056 112.349 135.059 112.276 135.029 112.268" fill="black"/>
<path d="M134.734 111.867L134.852 111.816L134.731 111.867C134.694 111.892 134.658 111.919 134.625 111.948L134.545 112.056L134.492 112.183L134.474 112.33L134.492 112.48C134.507 112.552 134.541 112.617 134.591 112.67C134.613 112.712 134.647 112.747 134.689 112.77C134.74 112.821 134.804 112.855 134.874 112.87H135.022C135.174 112.867 135.32 112.805 135.43 112.697C135.43 112.697 135.513 112.585 135.517 112.581C135.527 112.558 135.536 112.535 135.543 112.511C135.555 112.489 135.565 112.466 135.573 112.442L135.592 112.291C135.592 112.238 135.586 112.185 135.573 112.133L135.517 111.998L135.43 111.882C135.393 111.847 135.352 111.816 135.309 111.789C135.177 111.716 135.024 111.696 134.878 111.732C134.807 111.746 134.741 111.781 134.689 111.832C134.628 111.872 134.579 111.928 134.545 111.994L134.489 112.129C134.462 112.229 134.462 112.334 134.489 112.434L134.545 112.569C134.594 112.654 134.663 112.724 134.746 112.774L134.632 112.685L134.545 112.569L134.489 112.43L134.47 112.28L134.489 112.129L134.545 111.994L134.632 111.878L134.742 111.789L134.87 111.735L135.014 111.716C134.941 111.712 134.867 111.728 134.802 111.762C134.757 111.777 134.716 111.802 134.681 111.836C134.621 111.876 134.572 111.93 134.538 111.994L134.625 111.882L134.734 111.797L134.859 111.743L134.999 111.724L135.135 111.743L135.256 111.793L135.354 111.871L135.43 111.971C135.361 111.863 135.258 111.781 135.139 111.739H135.006C134.92 111.739 134.835 111.763 134.761 111.809L134.734 111.867Z" fill="white"/>
<path d="M137.388 109.261C136.994 108.604 136.365 108.131 135.634 107.941C135.234 107.852 134.821 107.841 134.417 107.91C134.194 107.927 133.978 107.993 133.782 108.103C133.587 108.213 133.416 108.364 133.283 108.547C133.239 108.625 133.215 108.712 133.214 108.802C133.214 108.892 133.236 108.98 133.279 109.058C133.323 109.136 133.385 109.202 133.461 109.247C133.536 109.293 133.622 109.318 133.71 109.319C133.84 109.319 133.968 109.293 134.088 109.242C134.118 109.242 134.16 109.207 134.107 109.242L134.232 109.196C134.371 109.149 134.508 109.099 134.647 109.064L134.757 109.041C134.791 109.041 134.878 109.022 134.795 109.041C134.868 109.031 134.941 109.024 135.014 109.022C135.086 109.018 135.158 109.018 135.23 109.022H135.339C135.264 109.022 135.339 109.022 135.381 109.022C135.635 109.063 135.879 109.151 136.103 109.28C136.338 109.414 136.544 109.595 136.708 109.813C136.784 109.887 136.884 109.93 136.989 109.935C137.094 109.94 137.197 109.907 137.28 109.842C137.364 109.776 137.421 109.683 137.443 109.578C137.465 109.473 137.449 109.363 137.399 109.269L137.388 109.261Z" fill="white"/>
<path d="M134.678 122.748C134.643 122.718 134.61 122.686 134.579 122.651L134.47 122.559C134.409 122.516 134.519 122.601 134.47 122.559L134.262 122.377C134.128 122.249 134.002 122.112 133.884 121.968C133.854 121.937 133.831 121.899 133.801 121.868C133.895 121.968 133.801 121.868 133.778 121.833C133.755 121.798 133.676 121.679 133.631 121.601C133.534 121.439 133.448 121.27 133.374 121.096C133.314 120.991 133.216 120.913 133.101 120.88C133.001 120.854 132.895 120.862 132.799 120.903C132.696 120.947 132.613 121.027 132.564 121.13C132.515 121.232 132.505 121.349 132.534 121.459C132.698 121.885 132.937 122.277 133.238 122.617C133.386 122.78 133.551 122.928 133.729 123.057C133.803 123.116 133.88 123.172 133.96 123.223C134.066 123.286 134.179 123.338 134.296 123.377C134.375 123.399 134.459 123.394 134.535 123.363C134.611 123.332 134.675 123.277 134.718 123.206C134.76 123.134 134.779 123.051 134.771 122.967C134.763 122.884 134.729 122.806 134.674 122.744L134.678 122.748Z" fill="white"/>
<path d="M128.221 131.649C127.902 132.23 127.628 132.835 127.401 133.459C127.072 134.231 126.736 135.003 126.414 135.795C125.791 137.177 125.246 138.595 124.781 140.041C124.6 140.681 125.503 140.894 125.738 140.307C126.293 138.902 126.834 137.489 127.393 136.084C127.696 135.312 127.983 134.54 128.263 133.787C128.529 133.163 128.718 132.507 128.826 131.834C128.86 131.487 128.376 131.41 128.221 131.664V131.649Z" fill="white"/>
<path d="M123.546 112.554L123.632 112.616L123.606 112.596L123.648 112.631C123.698 112.673 123.745 112.72 123.787 112.77L123.852 112.843C123.861 112.858 123.871 112.872 123.882 112.886C123.92 112.944 123.954 112.998 123.988 113.059L124.029 113.144C124.038 113.16 124.046 113.177 124.052 113.195C124.052 113.195 124.018 113.11 124.052 113.16C124.086 113.21 124.094 113.287 124.113 113.353C124.131 113.418 124.139 113.484 124.15 113.55L124.173 113.654C124.173 113.654 124.173 113.681 124.173 113.696C124.139 113.55 124.173 113.731 124.173 113.758C124.201 113.83 124.249 113.892 124.312 113.935C124.375 113.979 124.449 114.002 124.525 114.002C124.6 114.002 124.674 113.979 124.737 113.935C124.8 113.892 124.848 113.83 124.876 113.758C124.93 113.377 124.847 112.989 124.642 112.666C124.47 112.362 124.225 112.107 123.931 111.925C123.89 111.885 123.84 111.856 123.787 111.839C123.733 111.822 123.676 111.817 123.62 111.825C123.564 111.833 123.511 111.854 123.464 111.886C123.417 111.918 123.378 111.96 123.349 112.01C123.32 112.059 123.302 112.115 123.297 112.172C123.292 112.23 123.3 112.287 123.319 112.341C123.339 112.395 123.37 112.444 123.41 112.484C123.451 112.524 123.5 112.555 123.553 112.573L123.546 112.554Z" fill="white"/>
<path d="M121.833 242.539C121.455 233.584 119.353 224.752 117.63 216.002C114.424 199.728 114.912 182.219 107.352 167.138C99.1871 150.891 82.1658 143.766 64.8572 144.569C17.7168 146.738 28.0967 213.365 35.3127 243.929C39.3384 260.971 48.3915 273.682 65.9307 276.739C92.3907 281.332 119.644 284.671 145.931 279.14C151.351 277.982 157.392 275.901 159.539 270.694C161.648 265.607 158.892 259.5 154.606 256.134C150.319 252.768 144.857 251.46 139.588 250.194C134.318 248.928 125.98 246.09 121.822 242.551" fill="#7DDEFF"/>
<path d="M122.166 242.539C121.788 232.156 119.017 222.17 117.384 211.972C115.872 202.65 115.283 193.189 113.427 183.925C111.695 175.29 108.796 166.656 103.273 159.75C98.522 153.802 92.0922 149.471 85.0425 146.904C77.9547 144.379 70.4224 143.421 62.9446 144.094C57.63 144.549 52.3606 145.927 47.6961 148.633C43.591 151.054 40.0688 154.383 37.3881 158.376C34.6173 162.452 32.6895 167.096 31.3401 171.851C29.925 177.056 29.0383 182.395 28.6941 187.785C28.3148 193.476 28.306 199.186 28.6676 204.877C28.9927 210.501 29.6088 216.102 30.4177 221.672C31.1586 226.76 32.0583 231.817 33.1167 236.846C34.296 242.505 35.5245 248.186 37.6942 253.552C40.2268 259.817 43.9426 265.649 49.1628 269.918C51.7953 272.061 54.7254 273.793 57.8568 275.056C61.6368 276.6 65.5566 277.264 69.537 277.935C79.6485 279.63 89.8091 281.089 100.026 281.907C110.172 282.714 120.386 282.884 130.531 281.977C135.582 281.533 140.604 280.801 145.575 279.784C149.234 279.012 153.037 278.001 156.11 275.755C159.183 273.508 161.058 270.123 160.805 266.259C160.548 262.322 158.393 258.601 155.464 256.096C152.1 253.224 147.843 251.73 143.659 250.614C139.792 249.584 135.925 248.715 132.16 247.333C128.698 246.063 125.069 244.554 122.204 242.146C121.667 241.694 120.892 242.478 121.448 242.918C124.286 245.307 127.787 246.843 131.208 248.144C134.833 249.522 138.545 250.46 142.291 251.398C146.532 252.475 150.909 253.818 154.387 256.628C157.361 259.029 159.645 262.777 159.724 266.722C159.909 275.643 149.473 277.916 142.793 279.151C132.965 280.966 122.952 281.572 112.973 281.382C102.927 281.129 92.9038 280.273 82.956 278.819C77.9475 278.125 72.9541 277.326 67.9683 276.473C64.2374 275.836 60.5859 275.025 57.1121 273.454C51.1724 270.727 46.142 266.287 42.6385 260.681C39.0588 255.042 36.9912 248.673 35.4981 242.176C34.4523 237.616 33.5199 233.032 32.7009 228.423C31.7748 223.166 31.015 217.874 30.4744 212.562C29.8913 207.006 29.5986 201.422 29.5975 195.833C29.5735 190.392 29.9881 184.958 30.8373 179.587C31.6614 174.623 32.939 169.689 34.9953 165.1C36.8535 160.8 39.5284 156.919 42.8653 153.682C46.3988 150.392 50.6388 147.993 55.2448 146.68C61.3986 144.87 68.025 144.696 74.3489 145.522C81.6934 146.46 88.8943 149.035 94.9612 153.412C101.467 158.102 106.074 164.706 108.977 172.233C112.308 180.88 113.555 190.14 114.697 199.303C115.264 203.854 115.812 208.409 116.587 212.929C117.433 217.858 118.586 222.73 119.527 227.64C120.53 232.554 121.186 237.536 121.489 242.547C121.512 242.983 122.173 242.987 122.158 242.547L122.166 242.539Z" fill="#18C4FF"/>
<path d="M323.103 376.35H320.801V215.245H323.103V376.35Z" fill="#A5A5A5"/>
<path d="M258.518 376.35H256.216V215.245H258.518V376.35Z" fill="#A5A5A5"/>
<path d="M178.62 261.573C178.019 263.825 176.71 265.812 174.893 267.228C174.534 267.51 174.893 268.139 175.252 267.853C177.207 266.323 178.612 264.176 179.248 261.747C179.269 261.662 179.257 261.572 179.214 261.496C179.171 261.421 179.101 261.366 179.018 261.343C178.935 261.32 178.847 261.331 178.773 261.374C178.698 261.417 178.643 261.489 178.62 261.573Z" fill="#18C4FF"/>
<path d="M174.719 259.983C173.918 262.121 172.521 263.972 170.701 265.309C170.353 265.564 170.701 266.159 171.037 265.9C172.994 264.462 174.492 262.467 175.343 260.164C175.49 259.778 174.863 259.593 174.719 259.986V259.983Z" fill="#18C4FF"/>
<path d="M129.091 219.827C129.47 221.099 129.53 222.447 129.266 223.749C129.002 225.051 128.422 226.264 127.579 227.277C127.227 227.686 127.809 228.288 128.165 227.875C130.055 225.694 130.792 222.394 129.741 219.642C129.582 219.229 128.951 219.383 129.076 219.827H129.091Z" fill="#18C4FF"/>
<path d="M136.341 142.785C144.12 146.68 149.053 165.208 150.731 177.174C150.871 178.158 151.022 179.22 151.699 179.938C152.281 180.551 153.139 180.787 153.967 180.995L192.78 190.966C195.471 191.657 198.718 192.973 198.941 195.798C200.801 195.003 203.001 196.412 203.855 198.288C204.71 200.164 204.543 202.326 204.373 204.383C204.233 206.085 204.022 207.95 202.816 209.139C201.61 210.327 199.085 210.077 198.779 208.394C198.499 211.582 194.481 212.64 191.351 212.767C177.931 213.386 164.483 212.663 151.2 210.609C147.843 210.088 144.396 209.451 141.516 207.625C138.272 205.58 136.038 202.248 134.024 198.944C126.421 186.435 120.603 172.882 116.745 158.696" fill="white"/>
<path d="M136.174 143.075C137.823 144.031 139.243 145.35 140.332 146.935C141.727 148.895 142.906 151.006 143.848 153.23C146.082 158.291 147.609 163.687 148.792 169.099C149.344 171.631 149.809 174.181 150.187 176.749C150.391 178.154 150.52 179.718 151.729 180.633C152.367 181.056 153.08 181.35 153.827 181.497L156.568 182.192C164.037 184.122 171.509 186.052 178.983 187.982L190.134 190.854C191.669 191.191 193.183 191.619 194.67 192.135C195.804 192.575 197.029 193.201 197.77 194.224C198.108 194.682 198.317 195.227 198.374 195.798C198.405 196.111 198.696 196.462 199.047 196.323C200.264 195.833 201.534 196.323 202.449 197.234C203.504 198.292 203.867 199.797 203.931 201.268C203.994 202.831 203.895 204.397 203.636 205.939C203.44 207.12 203.016 208.641 201.822 209.146C200.93 209.532 199.505 209.386 199.263 208.251C199.123 207.61 198.276 207.826 198.216 208.394C197.94 211.096 194.553 211.902 192.391 212.142C190.588 212.339 188.754 212.335 186.947 212.377C184.899 212.426 182.85 212.445 180.801 212.435C172.636 212.381 164.481 211.833 156.379 210.795C154.405 210.54 152.428 210.262 150.463 209.942C148.67 209.678 146.901 209.27 145.171 208.722C143.496 208.182 141.927 207.344 140.537 206.247C139.215 205.152 138.036 203.888 137.029 202.488C134.851 199.543 133.041 196.285 131.272 193.073C129.425 189.728 127.703 186.32 126.108 182.848C122.899 175.859 120.21 168.634 118.064 161.232C117.812 160.332 117.56 159.431 117.308 158.53C117.263 158.393 117.168 158.278 117.043 158.21C116.917 158.142 116.771 158.125 116.634 158.164C116.497 158.202 116.38 158.293 116.306 158.417C116.233 158.541 116.209 158.689 116.239 158.831C118.332 166.49 120.996 173.975 124.207 181.219C125.802 184.822 127.53 188.359 129.389 191.83C131.171 195.249 133.125 198.57 135.245 201.781C137.233 204.723 139.633 207.417 142.861 208.93C146.354 210.563 150.27 211.011 154.039 211.536C162.36 212.698 170.743 213.342 179.142 213.466C183.3 213.524 187.477 213.52 191.616 213.257C194.084 213.099 197.286 212.485 198.699 210.169C199.032 209.613 199.233 208.985 199.285 208.336L198.238 208.479C198.529 209.833 199.913 210.463 201.172 210.347C202.77 210.192 203.818 209.015 204.332 207.529C204.599 206.68 204.765 205.801 204.827 204.912C204.918 203.962 204.997 203.005 205.008 202.052C205.031 200.183 204.736 198.226 203.523 196.76C202.389 195.397 200.499 194.536 198.783 195.216L199.455 195.737C199.191 192.95 196.59 191.545 194.239 190.769C192.606 190.228 190.909 189.87 189.246 189.441L183.576 187.986C176.016 186.043 168.447 184.113 160.869 182.196L155.199 180.752C154.356 180.595 153.53 180.351 152.735 180.023C152.392 179.843 152.094 179.584 151.867 179.266C151.639 178.949 151.487 178.581 151.423 178.193C151.117 176.915 151.011 175.568 150.792 174.271C150.572 172.974 150.323 171.654 150.055 170.349C148.921 164.849 147.443 159.364 145.273 154.188C144.333 151.874 143.179 149.657 141.826 147.568C140.692 145.869 139.365 144.229 137.668 143.09C137.305 142.845 136.926 142.626 136.534 142.434C136.156 142.253 135.819 142.82 136.201 143.017L136.174 143.075Z" fill="#C1BCBC"/>
<path d="M123.848 115.8C123.304 115.583 122.821 115.233 122.44 114.78C122.059 114.328 121.792 113.788 121.663 113.206C121.551 112.621 121.62 112.015 121.86 111.472C122.101 110.929 122.501 110.476 123.005 110.176C123.524 109.908 124.124 109.848 124.684 110.01C125.244 110.172 125.724 110.542 126.029 111.048C126.872 108.092 130.119 106.764 132.512 104.872C134.272 103.486 135.663 101.672 136.56 99.5956C136.78 99.802 136.945 100.062 137.04 100.35C137.135 100.639 137.157 100.948 137.104 101.248C137.823 100.009 138.276 98.399 137.562 97.16C136.787 95.8206 135.075 95.5233 133.619 95.0679C131.858 94.5197 130.236 93.5625 128.467 93.0336C125.598 92.1767 122.533 92.5048 119.728 93.466C118.737 93.8646 117.717 94.1847 116.677 94.4232C110.403 95.5079 106.226 99.2096 104.959 105.733C104.135 109.979 105.904 113.673 107.889 117.313L110.713 122.478C110.862 122.892 111.155 123.236 111.536 123.445C111.917 123.653 112.36 123.711 112.78 123.609L116.534 123.516C117.266 123.589 118.004 123.453 118.666 123.124C119.328 122.795 119.888 122.286 120.283 121.652L123.307 118.12C123.666 117.758 123.946 117.322 124.128 116.842C124.275 116.348 124.249 116.07 123.833 115.8" fill="#18C4FF"/>
<path d="M124.01 115.526C122.589 114.843 121.546 113.152 122.298 111.573C122.442 111.245 122.668 110.962 122.955 110.753C123.241 110.544 123.577 110.417 123.927 110.384C124.268 110.357 124.61 110.428 124.914 110.587C125.219 110.746 125.474 110.989 125.651 111.288C125.697 111.363 125.763 111.422 125.842 111.46C125.92 111.498 126.007 111.511 126.093 111.5C126.179 111.489 126.26 111.453 126.326 111.396C126.392 111.339 126.441 111.264 126.467 111.18C127.201 108.744 129.635 107.47 131.574 106.162C133.929 104.636 135.807 102.454 136.987 99.8737L136.231 99.9741C136.384 100.12 136.501 100.302 136.573 100.503C136.644 100.704 136.668 100.92 136.643 101.132C136.564 101.657 137.237 102.043 137.539 101.518C138.197 100.36 138.699 98.9241 138.295 97.5925C137.917 96.3766 136.923 95.6625 135.808 95.2301C134.534 94.7322 133.211 94.4581 131.948 93.8984C130.523 93.2808 129.121 92.6092 127.594 92.3004C124.441 91.6635 121.406 92.3428 118.431 93.4043C117.153 93.8598 115.823 94.0297 114.526 94.4041C113.468 94.7065 112.442 95.1177 111.465 95.6316C107.473 97.7507 104.948 101.854 104.354 106.366C103.976 109.327 104.804 112.191 106.044 114.858C106.709 116.279 107.477 117.641 108.229 119.015L109.457 121.266C109.793 121.966 110.172 122.644 110.591 123.296C111.487 124.531 113.237 124.145 114.557 124.115C115.993 124.08 117.736 124.296 119.032 123.536C119.607 123.165 120.118 122.701 120.544 122.161C121.088 121.536 121.625 120.907 122.162 120.278C122.699 119.648 123.247 119.031 123.78 118.398C124.243 117.931 124.562 117.335 124.695 116.684C124.729 116.434 124.686 116.178 124.572 115.954C124.458 115.729 124.279 115.546 124.06 115.43C123.64 115.155 123.133 115.816 123.523 116.14C123.712 116.306 123.738 116.348 123.67 116.591C123.579 116.89 123.433 117.168 123.239 117.41C122.774 118.023 122.234 118.591 121.727 119.178L120.393 120.722C119.956 121.286 119.474 121.812 118.953 122.296C117.872 123.211 116.337 123.007 115.025 123.038L112.958 123.088C112.258 123.107 111.688 123.134 111.287 122.466C110.531 121.2 109.858 119.857 109.144 118.56C108.471 117.329 107.783 116.105 107.163 114.843C106.029 112.492 105.126 109.948 105.273 107.281C105.496 103.224 107.666 99.2291 111.049 97.0713C112.735 96.0332 114.599 95.3299 116.541 94.9985C117.917 94.7399 119.187 94.1802 120.521 93.7788C121.871 93.36 123.269 93.1276 124.679 93.0878C126.261 93.0522 127.834 93.3274 129.314 93.8984C130.758 94.4504 132.13 95.1799 133.612 95.6316C134.704 95.9674 136.053 96.1797 136.862 97.0829C137.868 98.21 137.331 99.8621 136.681 101.024L137.577 101.41C137.642 101.025 137.614 100.629 137.497 100.257C137.38 99.8842 137.176 99.5463 136.904 99.2715C136.851 99.2196 136.788 99.1804 136.718 99.1569C136.649 99.1334 136.575 99.1262 136.502 99.1359C136.43 99.1455 136.36 99.1718 136.299 99.2126C136.237 99.2535 136.186 99.3079 136.148 99.3719C135.546 100.782 134.71 102.075 133.676 103.193C132.732 104.157 131.682 105.005 130.546 105.722C128.546 107.061 126.339 108.466 125.602 110.94L126.418 110.832C125.349 108.941 122.657 109.153 121.629 110.952C120.45 113.017 121.746 115.325 123.757 116.128C124.094 116.259 124.332 115.688 124.007 115.53L124.01 115.526Z" fill="#18C4FF"/>
<path d="M133.355 94.8672C137.308 95.9982 142.888 97.6309 145.477 100.588C146.947 102.267 147.802 104.417 148.395 106.586C148.834 108.2 149.151 109.906 150.142 111.253C151.555 113.183 153.99 113.986 156.231 114.777C158.473 115.568 160.877 116.649 161.901 118.838C162.427 119.976 162.502 121.27 162.733 122.509C162.963 123.748 163.432 125.041 164.464 125.732C165.095 126.156 165.863 126.299 166.573 126.562C168.022 127.096 169.245 128.126 170.035 129.477C170.824 130.828 171.131 132.416 170.904 133.972C170.676 135.528 169.928 136.955 168.786 138.012C167.645 139.068 166.18 139.688 164.642 139.767C162.374 139.883 160.14 138.802 157.857 138.91C156.813 139.01 155.78 139.201 154.768 139.481C153.153 139.833 151.506 140.009 149.854 140.006C148.463 140.006 147.004 139.848 145.859 139.045C145.065 138.489 144.468 137.655 143.613 137.204C142.411 136.567 140.967 136.818 139.626 137.034C137.418 137.397 135.12 137.632 132.969 137.011C130.818 136.389 128.811 134.753 128.335 132.521C129.178 131.831 130.391 132.383 131.453 132.587C132.135 132.716 132.836 132.687 133.506 132.503C134.176 132.32 134.797 131.986 135.324 131.526C137.029 130.02 137.414 127.515 137.592 125.226C137.77 122.937 137.898 120.467 139.304 118.664C139.501 118.413 139.735 118.131 139.682 117.815C139.638 117.662 139.56 117.521 139.455 117.402C137.645 114.989 137.32 111.751 137.414 108.717C137.509 105.683 137.959 102.614 137.437 99.6227C137.38 99.3062 137.221 98.9163 136.908 98.9356" fill="#18C4FF"/>
<path d="M133.256 95.234C136.28 96.2029 139.323 97.1872 142.083 98.7929C143.407 99.5116 144.566 100.509 145.485 101.719C146.522 103.253 147.275 104.968 147.707 106.779C148.191 108.563 148.573 110.412 149.726 111.89C150.769 113.233 152.281 114.044 153.804 114.681C156.45 115.792 160.34 116.51 161.364 119.699C161.931 121.451 161.803 123.358 162.74 124.995C163.17 125.767 163.833 126.376 164.63 126.732C165.413 127.075 166.267 127.214 167.019 127.627C169.597 129.04 170.958 132.448 169.786 135.243C169.184 136.633 168.125 137.765 166.793 138.443C165.247 139.242 163.583 139.103 161.935 138.752C160.98 138.522 160.013 138.342 159.04 138.211C158.054 138.121 157.061 138.186 156.095 138.404C155.101 138.609 154.118 138.864 153.113 139.01C152.089 139.153 151.058 139.227 150.024 139.23C149.133 139.263 148.241 139.16 147.378 138.925C146.591 138.636 145.88 138.163 145.303 137.543C144.667 136.882 143.868 136.407 142.99 136.169C142.026 135.999 141.039 136.011 140.079 136.204C136.579 136.741 132.652 137.239 129.93 134.398C129.398 133.839 129.027 133.142 128.856 132.383L128.611 133.004C129.151 132.595 129.779 132.745 130.391 132.896C131.025 133.089 131.681 133.198 132.342 133.22C133.7 133.206 135.001 132.652 135.967 131.676C137.857 129.746 138 126.859 138.208 124.311C138.318 122.941 138.458 121.509 139.013 120.243C139.286 119.618 139.747 119.147 140.057 118.556C140.435 117.838 140.057 117.348 139.652 116.757C138.053 114.341 137.864 111.28 137.985 108.451C138.068 106.559 138.269 104.672 138.272 102.773C138.275 101.822 138.213 100.873 138.087 99.9316C137.978 99.1596 137.766 98.4147 136.904 98.3297C136.125 98.2487 136.129 99.4877 136.904 99.5726C136.711 99.5533 136.798 99.4761 136.821 99.6807C136.844 99.8853 136.885 100.005 136.908 100.167C136.972 100.553 137.01 100.978 137.04 101.383C137.097 102.186 137.101 102.993 137.082 103.795C137.044 105.339 136.912 106.883 136.859 108.451C136.768 111.114 136.949 113.893 138.136 116.313C138.272 116.59 138.422 116.86 138.586 117.12C138.703 117.305 139.146 117.738 139.149 117.946C139.153 118.155 138.771 118.487 138.669 118.645C138.485 118.911 138.321 119.193 138.182 119.486C137.659 120.667 137.339 121.931 137.237 123.223C136.965 125.612 137.097 128.322 135.657 130.372C135.246 130.949 134.701 131.412 134.07 131.719C133.44 132.025 132.744 132.166 132.047 132.128C130.724 132.051 129.299 131.151 128.066 132.051C127.966 132.115 127.887 132.21 127.842 132.322C127.798 132.434 127.789 132.558 127.817 132.676C128.216 134.33 129.22 135.766 130.622 136.69C132.24 137.787 134.186 138.165 136.103 138.149C137.145 138.128 138.184 138.035 139.214 137.872C140.182 137.668 141.17 137.574 142.158 137.59C143.126 137.663 143.769 138.207 144.449 138.856C145.103 139.519 145.888 140.032 146.751 140.361C148.641 141.037 150.845 140.863 152.799 140.608C154.886 140.334 156.957 139.493 159.07 139.701C161.047 139.898 162.975 140.697 164.99 140.473C166.613 140.296 168.137 139.586 169.333 138.451C170.542 137.312 171.338 135.788 171.591 134.128C171.844 132.468 171.538 130.77 170.724 129.31C169.944 127.863 168.729 126.711 167.258 126.025C166.441 125.662 165.424 125.55 164.725 124.968C164.149 124.409 163.762 123.678 163.621 122.879C163.379 121.907 163.311 120.903 163.088 119.93C162.882 118.987 162.474 118.103 161.894 117.34C160.839 115.974 159.289 115.155 157.736 114.526C156.182 113.897 154.545 113.484 153.052 112.712C152.284 112.337 151.598 111.806 151.036 111.152C150.475 110.498 150.05 109.734 149.786 108.906C149.159 107.022 148.796 105.089 147.98 103.267C147.27 101.591 146.166 100.121 144.767 98.9859C142.17 96.9556 138.858 95.9365 135.74 95.0989C134.984 94.8943 134.228 94.7129 133.472 94.5083C133.384 94.5011 133.297 94.5252 133.225 94.5764C133.153 94.6275 133.101 94.7027 133.078 94.7889C133.054 94.8751 133.06 94.967 133.096 95.0489C133.131 95.1308 133.193 95.1976 133.272 95.2379L133.256 95.234Z" fill="#18C4FF"/>
<path d="M120.484 173.7C123.357 179.216 126.071 184.821 128.705 190.46C129.461 192.054 130.115 193.706 130.936 195.262C131.181 195.729 131.986 195.405 131.794 194.876C131.246 193.421 130.531 192.016 129.877 190.607C129.223 189.198 128.569 187.801 127.885 186.411C126.513 183.605 125.084 180.829 123.625 178.066C122.788 176.478 121.939 174.899 121.077 173.329C120.862 172.943 120.276 173.283 120.484 173.685V173.7Z" fill="#18C4FF"/>
<path d="M106.626 137.215C109.383 137.388 112.14 137.547 114.897 137.694L119.029 137.914C119.641 137.949 120.249 137.972 120.858 138.041C121.187 138.077 121.514 138.133 121.837 138.207C122.166 138.284 122.487 138.431 122.82 138.477C122.912 138.499 123.009 138.486 123.094 138.442C123.178 138.398 123.244 138.325 123.281 138.235C123.318 138.146 123.323 138.047 123.296 137.954C123.268 137.861 123.209 137.782 123.13 137.729C122.578 137.425 121.968 137.249 121.342 137.215C120.699 137.126 120.053 137.088 119.407 137.057L115.177 136.86C112.327 136.724 109.476 136.595 106.626 136.474C106.169 136.474 106.177 137.169 106.626 137.2V137.215Z" fill="#18C4FF"/>
<path d="M125.991 138.493L126.12 138.254C126.146 138.209 126.162 138.159 126.165 138.107C126.178 138.056 126.178 138.003 126.165 137.952C126.155 137.902 126.131 137.855 126.097 137.817C126.069 137.775 126.031 137.741 125.987 137.717L125.897 137.678C125.83 137.659 125.759 137.659 125.693 137.678L125.598 137.717C125.542 137.751 125.495 137.798 125.462 137.856L125.352 138.107C125.324 138.149 125.308 138.199 125.307 138.25C125.294 138.299 125.294 138.351 125.307 138.4C125.318 138.448 125.34 138.493 125.371 138.531C125.398 138.572 125.434 138.605 125.477 138.628L125.568 138.667C125.633 138.685 125.703 138.685 125.768 138.667L125.855 138.628C125.911 138.595 125.958 138.549 125.991 138.493Z" fill="#18C4FF"/>
<path d="M151.635 181.192C151.467 183.174 151.576 185.171 151.96 187.121C152.047 187.577 152.735 187.384 152.644 186.928C152.268 185.042 152.158 183.111 152.315 181.192C152.353 180.745 151.673 180.748 151.635 181.192Z" fill="#18C4FF"/>
<path d="M155.192 182.285L155.173 186.658C155.198 186.735 155.246 186.803 155.31 186.85C155.375 186.898 155.452 186.924 155.532 186.924C155.612 186.924 155.689 186.898 155.754 186.85C155.818 186.803 155.866 186.735 155.891 186.658L155.872 182.285C155.872 182.193 155.836 182.104 155.773 182.039C155.709 181.974 155.622 181.937 155.532 181.937C155.442 181.937 155.355 181.974 155.291 182.039C155.228 182.104 155.192 182.193 155.192 182.285Z" fill="#18C4FF"/>
<path d="M163.504 212.555C168.365 212.809 173.241 212.782 178.106 212.64C180.541 212.568 182.972 212.459 185.402 212.315C187.56 212.246 189.714 212.064 191.854 211.771C193.793 211.455 195.91 210.76 197.169 209.123C197.486 208.706 196.957 208.116 196.583 208.525C195.32 209.899 193.684 210.517 191.896 210.841C189.808 211.14 187.706 211.321 185.598 211.385C180.922 211.671 176.243 211.814 171.563 211.864C168.879 211.895 166.195 211.864 163.512 211.864C163.428 211.873 163.351 211.913 163.295 211.977C163.238 212.041 163.207 212.123 163.207 212.209C163.207 212.295 163.238 212.378 163.295 212.442C163.351 212.505 163.428 212.546 163.512 212.555H163.504Z" fill="#18C4FF"/>
<path d="M182.287 357.509C177.331 356.971 172.32 357.395 167.518 358.76C167.518 359.852 167.496 360.941 167.454 362.018C167.386 363.743 167.314 365.526 167.9 367.144C169.227 370.803 173.317 372.413 176.953 373.602C181.841 375.196 185.704 375.983 189.971 375.451C193.324 375.03 194.791 370.876 192.534 368.31C191.438 367.063 190.331 365.797 189.76 364.299C189.155 362.713 189.2 360.991 189.435 359.281C187.138 358.374 184.735 357.778 182.287 357.509Z" fill="#18C4FF"/>
<path d="M182.287 356.529C177.243 356.001 172.147 356.439 167.261 357.822C167.061 357.882 166.884 358.006 166.757 358.177C166.631 358.347 166.561 358.554 166.558 358.768C166.558 359.856 166.536 360.941 166.494 362.025C166.429 363.094 166.438 364.166 166.52 365.233C166.677 367.087 167.431 368.835 168.664 370.205C170.962 372.737 174.447 373.853 177.581 374.837C181.285 375.995 185.141 376.852 189.038 376.531C190.633 376.404 192.138 376.045 193.238 374.763C193.713 374.216 194.075 373.576 194.301 372.882C194.527 372.188 194.613 371.455 194.553 370.726C194.479 369.858 194.195 369.022 193.725 368.294C193.158 367.441 192.391 366.75 191.778 365.913C191.116 365.071 190.642 364.092 190.387 363.045C190.179 361.888 190.169 360.703 190.357 359.544C190.415 359.294 190.378 359.031 190.254 358.807C190.13 358.584 189.928 358.417 189.688 358.339C187.307 357.418 184.819 356.812 182.287 356.537C182.033 356.538 181.789 356.641 181.609 356.825C181.429 357.008 181.328 357.257 181.327 357.517C181.333 357.775 181.436 358.02 181.615 358.202C181.794 358.384 182.034 358.489 182.287 358.494C184.647 358.769 186.963 359.353 189.178 360.231L188.509 359.026C188.233 361.091 188.195 363.16 189.053 365.098C189.457 365.957 189.965 366.761 190.565 367.491C191.064 368.128 191.718 368.726 192.13 369.383C192.416 369.837 192.59 370.356 192.637 370.894C192.684 371.432 192.602 371.974 192.399 372.472C192.196 372.971 191.877 373.412 191.47 373.757C191.063 374.103 190.58 374.342 190.062 374.455C188.467 374.791 186.679 374.69 185.069 374.528C183.278 374.326 181.508 373.967 179.777 373.455C178.091 372.98 176.409 372.451 174.776 371.807C173.425 371.311 172.151 370.616 170.996 369.745C169.639 368.724 168.73 367.199 168.463 365.499C168.344 364.439 168.322 363.369 168.395 362.303C168.441 361.135 168.465 359.963 168.467 358.787L167.764 359.733C172.485 358.403 177.409 357.989 182.279 358.513C182.533 358.512 182.776 358.409 182.956 358.226C183.136 358.043 183.237 357.795 183.239 357.536C183.242 357.274 183.143 357.022 182.965 356.834C182.787 356.645 182.543 356.536 182.287 356.529Z" fill="#18C4FF"/>
<path d="M188.244 362.84C188.735 362.801 189.231 362.782 189.726 362.771C190.221 362.759 190.727 362.809 191.215 362.771C191.322 362.771 191.425 362.727 191.501 362.65C191.577 362.572 191.62 362.467 191.62 362.358C191.62 362.248 191.577 362.143 191.501 362.065C191.425 361.988 191.322 361.945 191.215 361.945C190.711 361.908 190.205 361.92 189.703 361.979C189.185 362.018 188.667 362.076 188.153 362.149C188.073 362.172 188.003 362.223 187.958 362.294C187.912 362.365 187.893 362.451 187.904 362.535C187.914 362.621 187.954 362.7 188.018 362.758C188.081 362.815 188.163 362.847 188.248 362.848L188.244 362.84Z" fill="black"/>
<path d="M189.117 365.218C189.603 365.311 190.097 365.352 190.591 365.337C191.089 365.338 191.584 365.265 192.062 365.121C192.162 365.107 192.253 365.053 192.314 364.971C192.375 364.889 192.402 364.785 192.389 364.683C192.375 364.581 192.322 364.488 192.242 364.425C192.161 364.363 192.06 364.335 191.96 364.349C191.495 364.407 191.056 364.507 190.591 364.535C190.131 364.565 189.669 364.565 189.208 364.535C188.83 364.5 188.732 365.156 189.117 365.225V365.218Z" fill="black"/>
<path d="M116.863 205.607C117.184 215.566 118.673 225.494 120.764 235.213C121.349 237.946 121.898 240.725 122.725 243.396C122.748 243.481 122.787 243.56 122.84 243.629C122.893 243.699 122.958 243.757 123.033 243.8C123.108 243.843 123.19 243.871 123.276 243.882C123.361 243.893 123.448 243.887 123.53 243.863C123.613 243.84 123.691 243.8 123.759 243.746C123.827 243.692 123.883 243.625 123.926 243.549C123.968 243.473 123.996 243.388 124.006 243.301C124.017 243.214 124.011 243.126 123.988 243.041C123.451 240.605 122.778 238.205 122.23 235.773C121.693 233.4 121.199 231.02 120.748 228.632C119.834 223.78 119.115 218.897 118.499 213.998C118.148 211.208 117.845 208.405 117.551 205.607C117.505 205.167 116.847 205.147 116.863 205.607Z" fill="white"/>
<path d="M288.387 209.285H212.814L218.333 205.259H291.313V206.298C291.313 207.09 291.005 207.85 290.456 208.41C289.908 208.97 289.163 209.285 288.387 209.285Z" fill="black"/>
<path d="M288.388 208.795H215.88C214.908 208.795 213.888 208.702 212.92 208.795H212.814L213.056 209.71L216.424 207.251L218.284 205.896C218.354 205.849 218.421 205.796 218.484 205.738C218.654 205.564 218.431 205.842 218.329 205.738H218.374C218.678 205.773 218.985 205.773 219.289 205.738H287.79C288.902 205.738 290.058 205.827 291.17 205.738H291.313L290.833 205.248C290.894 205.895 290.842 206.549 290.678 207.178C290.497 207.649 290.182 208.054 289.774 208.341C289.366 208.627 288.883 208.783 288.388 208.787C288.26 208.787 288.138 208.839 288.048 208.931C287.958 209.023 287.908 209.148 287.908 209.278C287.908 209.408 287.958 209.532 288.048 209.624C288.138 209.716 288.26 209.768 288.388 209.768C289.01 209.763 289.619 209.587 290.151 209.258C290.683 208.929 291.119 208.46 291.412 207.9C291.835 207.058 291.79 206.17 291.79 205.252C291.788 205.122 291.736 204.999 291.647 204.907C291.557 204.816 291.436 204.763 291.31 204.761H218.62C218.3 204.75 217.988 204.86 217.743 205.07L213.585 208.096L212.546 208.868C212.458 208.925 212.391 209.008 212.354 209.107C212.316 209.205 212.311 209.313 212.338 209.415C212.365 209.517 212.423 209.607 212.504 209.673C212.585 209.738 212.684 209.776 212.788 209.779H285.303C286.29 209.779 287.276 209.806 288.263 209.779H288.388C288.515 209.779 288.638 209.728 288.728 209.635C288.819 209.543 288.87 209.418 288.87 209.287C288.87 209.157 288.819 209.032 288.728 208.939C288.638 208.847 288.515 208.795 288.388 208.795Z" fill="black"/>
<path d="M242.272 206.51H238.348C238.15 206.51 237.989 206.674 237.989 206.877V207.386C237.989 207.589 238.15 207.753 238.348 207.753H242.272C242.47 207.753 242.631 207.589 242.631 207.386V206.877C242.631 206.674 242.47 206.51 242.272 206.51Z" fill="#18C4FF"/>
<path d="M248.784 206.51H244.861C244.662 206.51 244.502 206.674 244.502 206.877V207.386C244.502 207.589 244.662 207.753 244.861 207.753H248.784C248.983 207.753 249.144 207.589 249.144 207.386V206.877C249.144 206.674 248.983 206.51 248.784 206.51Z" fill="#18C4FF"/>
<path d="M255.301 206.51H251.378C251.179 206.51 251.019 206.674 251.019 206.877V207.386C251.019 207.589 251.179 207.753 251.378 207.753H255.301C255.5 207.753 255.66 207.589 255.66 207.386V206.877C255.66 206.674 255.5 206.51 255.301 206.51Z" fill="#18C4FF"/>
<path d="M310.436 349.843C307.571 344.567 304.71 339.236 302.899 333.492C301.088 327.749 300.37 321.503 301.867 315.667C302.347 313.791 303.704 311.583 305.553 312.031C306.214 312.247 306.797 312.66 307.227 313.216C308.761 314.944 309.806 317.066 310.251 319.353L308.8 312.737C308.482 311.294 308.195 309.649 309.004 308.433C309.813 307.217 312.171 307.275 312.334 308.734C309.571 301.481 308.176 293.611 308.902 285.868C309.03 284.521 309.302 283.038 310.365 282.228C311.427 281.417 313.411 282.05 313.302 283.386C313.528 280.622 312.289 277.901 312.425 275.075C312.723 268.984 313.135 262.519 315.044 256.705C316.658 251.784 321.069 245.276 326.732 245.125C333.782 244.956 337.743 254.775 339.081 260.438C342.294 274.045 340.355 288.419 336.624 301.891C337.478 300.621 337.951 299.104 338.934 297.938C339.917 296.772 341.731 296.074 342.922 297.015C343.787 297.706 343.957 298.945 343.972 300.08C344.059 306.87 340.862 313.204 337.747 319.203C338.261 317.883 338.817 316.501 339.894 315.609C340.971 314.717 342.74 314.517 343.674 315.57C344.313 316.296 344.381 317.369 344.324 318.342C344.19 320.637 343.571 322.876 342.51 324.904C342.967 323.773 344.876 324.364 345.156 325.556C345.435 326.749 344.71 327.919 344.022 328.926C345.051 326.002 346.702 323.347 348.856 321.152C349.17 320.767 349.597 320.496 350.073 320.38C351.17 320.226 351.869 321.538 352.103 322.654C353.589 329.683 350.213 336.816 346.244 342.753C343.799 346.4 341.088 349.859 338.382 353.31C337.429 354.526 336.258 355.853 334.73 355.846" fill="#18C4FF"/>
<path d="M310.716 349.666C307.518 343.702 304.309 337.65 302.634 331.026C301.766 327.716 301.398 324.29 301.542 320.866C301.624 319.222 301.864 317.591 302.26 315.995C302.559 314.814 303.096 313.444 304.15 312.764C305.662 311.784 307.015 313.625 307.783 314.76C308.743 316.185 309.41 317.795 309.741 319.492L310.72 319.218L309.741 314.733C309.45 313.409 309.034 312.031 308.985 310.684C308.943 309.696 309.159 308.499 310.206 308.175C310.841 307.978 311.718 308.094 311.824 308.873L312.818 308.592C311.285 304.601 310.215 300.441 309.627 296.197C309.35 294.093 309.213 291.971 309.219 289.847C309.219 288.794 309.268 287.736 309.348 286.682C309.379 285.766 309.526 284.858 309.786 283.98C310.047 283.208 310.58 282.436 311.449 282.405C312.035 282.405 312.769 282.695 312.742 283.386C312.716 284.077 313.778 284.088 313.827 283.386C313.967 281.429 313.449 279.526 313.143 277.623C312.822 275.647 313.029 273.651 313.143 271.667C313.404 267.629 313.808 263.584 314.78 259.655C315.48 256.568 316.764 253.65 318.56 251.066C320.23 248.731 322.54 246.546 325.386 245.917C330.856 244.709 334.53 250.232 336.462 254.617C339.161 260.747 339.988 267.741 340.041 274.388C340.109 282.641 338.771 290.843 336.741 298.807C336.492 299.783 336.231 300.737 335.963 301.721C335.751 302.493 336.768 302.879 337.176 302.242C338.182 300.698 338.688 298.532 340.382 297.61C341.043 297.247 341.928 297.081 342.547 297.61C343.167 298.139 343.262 299.154 343.303 299.926C343.424 304.203 342.101 308.418 340.408 312.278C339.425 314.524 338.306 316.705 337.176 318.879L338.374 319.396C338.843 318.199 339.368 316.786 340.453 316.03C341.277 315.455 342.653 315.258 343.303 316.192C343.609 316.744 343.741 317.379 343.681 318.01C343.66 318.788 343.574 319.563 343.424 320.326C343.134 321.806 342.636 323.236 341.946 324.572L343.08 325.244C343.341 324.684 344.154 325.07 344.415 325.468C345.039 326.413 343.969 327.849 343.466 328.594L344.653 329.104C345.195 327.581 345.911 326.129 346.785 324.777C347.245 324.071 347.75 323.396 348.297 322.758C348.758 322.21 349.283 321.469 349.915 321.121C351.185 320.419 351.593 323.105 351.699 323.823C351.925 325.489 351.907 327.18 351.646 328.841C350.588 335.747 346.388 341.734 342.321 347.149C341.1 348.778 339.849 350.376 338.59 351.974C337.637 353.186 336.477 355.081 334.768 355.128C333.903 355.128 333.899 356.525 334.768 356.506C336.477 356.459 337.724 355.24 338.741 353.962C340.007 352.372 341.247 350.754 342.476 349.133C344.872 345.968 347.238 342.741 349.178 339.259C351.007 335.974 352.481 332.412 352.958 328.644C353.212 326.773 353.179 324.873 352.859 323.013C352.629 321.677 352.001 319.813 350.425 319.685C349.476 319.608 348.777 320.272 348.157 320.92C347.464 321.654 346.821 322.436 346.233 323.26C345.037 324.943 344.081 326.791 343.394 328.749C343.13 329.497 344.188 329.841 344.581 329.262C345.488 327.926 346.607 325.788 345.212 324.387C344.339 323.499 342.566 323.229 341.954 324.568C341.576 325.34 342.68 326.004 343.088 325.24C343.989 323.51 344.588 321.633 344.857 319.693C345.069 318.11 345.265 316.065 343.95 314.899C342.842 313.915 341.141 314.034 339.943 314.779C338.454 315.702 337.754 317.446 337.138 319.025C336.862 319.732 337.993 320.206 338.337 319.542C340.605 315.212 342.873 310.788 343.976 305.986C344.498 303.743 344.899 301.231 344.57 298.926C344.528 298.444 344.393 297.975 344.171 297.547C343.949 297.12 343.645 296.742 343.277 296.436C342.882 296.162 342.43 295.986 341.956 295.925C341.482 295.863 341.001 295.917 340.552 296.081C338.045 296.896 337.388 299.555 336.076 301.551L337.289 302.072C339.557 293.835 341.16 285.339 341.349 276.762C341.456 272.534 341.167 268.304 340.484 264.132C340.014 261.093 339.219 258.116 338.114 255.254C336.224 250.545 332.856 244.763 327.261 244.523C324.214 244.392 321.451 246.067 319.387 248.248C317.285 250.496 315.672 253.173 314.655 256.103C313.309 259.913 312.719 264.001 312.349 268.015C312.156 270.1 312.035 272.188 311.929 274.276C311.866 275.26 311.894 276.247 312.013 277.225C312.152 278.287 312.391 279.333 312.572 280.387C312.762 281.374 312.832 282.381 312.78 283.386H313.865C313.925 281.761 312.039 280.977 310.709 281.456C308.849 282.097 308.512 284.467 308.361 286.177C307.967 291.093 308.329 296.042 309.435 300.845C310.049 303.578 310.861 306.262 311.861 308.873C311.907 308.997 311.996 309.099 312.111 309.159C312.227 309.219 312.36 309.233 312.485 309.197C312.61 309.162 312.717 309.08 312.785 308.968C312.854 308.856 312.879 308.722 312.856 308.592C312.693 307.522 311.642 306.986 310.659 307.048C310.103 307.067 309.566 307.263 309.124 307.609C308.683 307.956 308.358 308.434 308.195 308.978C307.688 310.522 308.195 312.205 308.516 313.714L309.782 319.477C309.926 320.129 310.89 319.863 310.761 319.203C310.44 317.569 309.82 316.01 308.936 314.609C308.18 313.413 307.102 311.834 305.643 311.521C304.354 311.243 303.258 312.039 302.536 313.065C301.655 314.308 301.311 315.829 301.051 317.311C299.754 324.645 301.584 332.072 304.453 338.777C306.116 342.637 308.131 346.331 310.149 350.009C310.365 350.395 310.958 350.052 310.743 349.654L310.716 349.666Z" fill="#18C4FF"/>
<path d="M300.457 344.131H348.644V365.5C348.644 366.924 348.37 368.335 347.836 369.652C347.302 370.968 346.519 372.164 345.532 373.172C344.546 374.18 343.374 374.979 342.085 375.524C340.796 376.069 339.414 376.35 338.019 376.35H311.094C308.276 376.35 305.573 375.207 303.581 373.172C301.588 371.137 300.468 368.377 300.468 365.5V344.131H300.457Z" fill="white"/>
<path d="M300.457 344.131H348.644V365.5C348.644 366.924 348.37 368.335 347.836 369.652C347.302 370.968 346.519 372.164 345.532 373.172C344.546 374.18 343.374 374.979 342.085 375.524C340.796 376.069 339.414 376.35 338.019 376.35H311.094C308.276 376.35 305.573 375.207 303.581 373.172C301.588 371.137 300.468 368.377 300.468 365.5V344.131H300.457Z" stroke="black" stroke-width="1.69" stroke-miterlimit="10"/>
<path d="M327.185 262.746C324.917 266.749 324.789 271.543 325.356 276.017C326.01 281.17 327.495 286.203 327.439 291.434C327.382 296.664 326.161 301.921 326.422 307.213C326.675 312.401 328.036 317.512 327.556 322.731C327.068 328.023 325.012 333.732 327.14 338.904C327.367 339.46 328.274 339.24 328.043 338.649C326.35 334.017 327.737 329.15 328.357 324.452C328.68 321.957 328.715 319.432 328.459 316.929C328.206 314.358 327.764 311.807 327.503 309.236C327.263 306.649 327.263 304.045 327.503 301.458C327.722 298.86 328.07 296.27 328.225 293.665C328.377 291.106 328.265 288.538 327.892 286.003C327.514 283.455 326.97 280.942 326.528 278.41C325.643 273.346 325.231 267.76 327.82 263.117C327.842 263.036 327.837 262.951 327.807 262.873C327.776 262.795 327.722 262.73 327.652 262.686C327.582 262.643 327.501 262.623 327.419 262.631C327.338 262.64 327.261 262.674 327.2 262.731L327.185 262.746Z" fill="white"/>
<path d="M314.432 318.373C315.842 318.64 317.222 319.051 318.552 319.6C319.849 320.243 321.018 321.127 321.999 322.206C322.963 323.137 323.859 324.139 324.679 325.205C325.461 326.274 326.001 327.506 326.259 328.814C326.358 329.293 327.148 329.2 327.102 328.698C326.849 325.846 324.566 323.53 322.657 321.654C321.589 320.529 320.328 319.613 318.937 318.952C317.54 318.394 316.089 317.985 314.609 317.732C314.19 317.647 314.008 318.296 314.432 318.392V318.373Z" fill="white"/>
<path d="M333.963 307.569C331.164 308.737 328.796 310.775 327.193 313.393C326.909 313.857 327.628 314.285 327.907 313.822C329.416 311.346 331.618 309.389 334.228 308.206C334.575 308.047 334.322 307.433 333.963 307.569Z" fill="white"/>
<path d="M323.545 289.77C324.388 290.155 325.186 290.637 325.923 291.206C326.64 291.785 327.303 292.431 327.904 293.136C327.976 293.185 328.063 293.207 328.15 293.198C328.236 293.19 328.317 293.151 328.379 293.088C328.441 293.026 328.479 292.943 328.488 292.855C328.498 292.767 328.477 292.678 328.429 292.603C327.823 291.848 327.122 291.178 326.343 290.612C325.578 290.038 324.751 289.556 323.878 289.176C323.802 289.135 323.713 289.125 323.629 289.148C323.546 289.171 323.474 289.225 323.428 289.299C323.384 289.376 323.372 289.467 323.394 289.554C323.416 289.64 323.47 289.713 323.545 289.758V289.77Z" fill="white"/>
<path d="M178.348 9.64989C178.328 13.0555 177.349 16.3834 175.528 19.2366C173.707 22.0899 171.121 24.3482 168.078 25.7422C166.286 26.5605 164.347 27.0044 162.51 27.7108C160.587 28.4454 158.716 29.3121 156.908 30.3047C155.212 31.2399 153.589 32.3045 152.05 33.4893C151.434 33.964 150.667 34.4272 150.44 35.2301C150.355 35.5571 150.352 35.9009 150.433 36.2291C150.513 36.5573 150.675 36.8591 150.901 37.1061C151.495 37.7507 152.266 37.6967 153.041 37.6967H205.11H210.516C210.805 37.7093 211.094 37.656 211.361 37.5404C211.627 37.4249 211.866 37.2502 212.058 37.0289C212.277 36.7723 212.427 36.462 212.493 36.1284C212.559 35.7948 212.54 35.4493 212.436 35.1259C212.168 34.3539 211.359 33.8637 210.739 33.3889C207.504 30.9454 203.939 28.995 200.155 27.5989C198.352 26.9157 196.45 26.4795 194.696 25.6689C193.182 24.9706 191.773 24.0556 190.512 22.9514C187.986 20.7076 186.149 17.7669 185.22 14.4826C184.776 12.9116 184.548 11.285 184.543 9.64989C184.543 9.51987 184.493 9.39518 184.403 9.30325C184.313 9.21132 184.191 9.15967 184.063 9.15967C183.936 9.15967 183.814 9.21132 183.724 9.30325C183.634 9.39518 183.583 9.51987 183.583 9.64989C183.604 12.9985 184.503 16.2803 186.187 19.1539C187.871 22.0274 190.278 24.3877 193.158 25.9893C194.738 26.8616 196.405 27.3596 198.102 27.9193C200.061 28.5673 201.975 29.3514 203.829 30.2661C205.597 31.1349 207.299 32.1374 208.92 33.2654C209.71 33.7939 210.468 34.3714 211.188 34.9947C211.301 35.0835 211.392 35.1969 211.456 35.3265C211.52 35.4562 211.555 35.5988 211.558 35.7438C211.56 35.8889 211.532 36.0328 211.473 36.165C211.414 36.2972 211.327 36.4143 211.219 36.5078C210.841 36.8166 210.164 36.7162 209.707 36.7162H158.042C156.178 36.7162 154.311 36.7162 152.447 36.7162C152.289 36.7332 152.13 36.7147 151.98 36.662C151.829 36.6094 151.692 36.5238 151.578 36.4113C151.086 35.8593 151.4 35.2533 151.88 34.8673C152.636 34.2613 153.392 33.7093 154.175 33.1496C157.536 30.8685 161.198 29.0866 165.05 27.8575C166.734 27.3742 168.366 26.7199 169.922 25.9043C172.768 24.3001 175.139 21.9457 176.79 19.0868C178.441 16.2278 179.31 12.9689 179.308 9.64989C179.308 9.51987 179.257 9.39518 179.167 9.30325C179.077 9.21132 178.955 9.15967 178.828 9.15967C178.701 9.15967 178.578 9.21132 178.488 9.30325C178.398 9.39518 178.348 9.51987 178.348 9.64989Z" fill="white"/>
<path d="M150.909 38.986C142.491 41.0588 134.069 43.1355 125.81 45.795C117.97 48.3195 110.259 51.3534 103.009 55.3215C96.4366 58.8545 90.3509 63.2596 84.9101 68.4223C82.2226 71.0098 79.7543 73.8248 77.5315 76.8371C75.4185 79.709 72.7763 83.3026 73.434 87.124C73.9859 90.3356 77.093 92.088 80.0944 92.0185C83.5493 91.9375 86.3087 89.5134 88.2365 86.7805C88.7518 86.041 89.2288 85.2744 89.6653 84.4838C89.7212 84.3815 89.7433 84.2635 89.7284 84.1474C89.7134 84.0313 89.6621 83.9232 89.5822 83.8392C85.3108 80.0409 79.1531 82.5036 74.7494 84.7154C69.5973 87.3046 64.6529 90.304 59.9621 93.686C50.6568 100.394 42.3986 108.5 35.4677 117.73C31.53 122.973 28.054 128.56 25.0802 134.428C24.7703 135.046 25.6813 135.586 25.995 134.973C36.3103 114.695 52.3846 98.0732 72.111 87.2862C74.8213 85.8078 77.5958 84.2947 80.5744 83.4725C83.3489 82.7005 86.5468 82.5384 88.8488 84.5842L88.7695 83.9395C87.1516 86.8384 84.8647 89.9573 81.5081 90.7679C78.7071 91.4472 75.203 90.2622 74.4811 87.1395C74.0464 85.2712 74.7381 83.3104 75.5848 81.6737C76.4622 80.069 77.4632 78.5382 78.5786 77.0958C80.7244 74.2186 83.1001 71.5279 85.6812 69.0515C90.8806 64.1062 96.6829 59.8664 102.944 56.437C109.794 52.6156 117.067 49.6512 124.49 47.173C132.273 44.5714 140.208 42.4909 148.149 40.4682L151.124 39.6962C151.208 39.6593 151.275 39.5929 151.315 39.5092C151.354 39.4256 151.363 39.3302 151.339 39.2407C151.315 39.1511 151.26 39.0733 151.185 39.0216C151.109 38.9698 151.018 38.9476 150.928 38.959L150.909 38.986Z" fill="#18C4FF"/>
<path d="M211.945 39.704C219.136 41.7958 226.097 44.6416 232.716 48.196C239.047 51.6044 245.231 55.5879 250.64 60.3975C255.808 64.9909 260.261 70.6419 262.06 77.505C263.058 81.3057 263.246 85.2809 262.612 89.1622C262.098 92.2502 260.793 95.9828 257.342 96.6081C256.59 96.7659 255.807 96.6743 255.109 96.3466C254.411 96.0189 253.833 95.4723 253.46 94.7862C252.754 93.4724 252.411 91.9876 252.466 90.49C252.53 87.6259 253.876 84.8853 255.83 82.8704C257.853 80.7545 260.602 79.5228 263.496 79.435C266.584 79.4092 269.599 80.394 272.099 82.2451C277.811 86.329 279.894 93.5665 279.304 100.41C279.15 102.194 278.828 103.958 278.344 105.679C277.959 107.1 277.133 108.354 275.989 109.254C275.547 109.627 274.99 109.826 274.417 109.817C274.106 109.76 273.816 109.621 273.575 109.412C273.334 109.204 273.151 108.935 273.044 108.632C272.522 107.246 272.425 105.73 272.765 104.286C273.106 102.833 273.735 101.466 274.613 100.271C275.491 99.0761 276.6 98.0777 277.872 97.3377C280.654 95.6779 284.01 95.5273 287.072 96.3843C294.005 98.3143 298.386 104.49 301.202 110.879C301.924 112.511 302.566 114.183 303.171 115.866C303.405 116.518 304.441 116.252 304.203 115.576C301.64 108.466 298.231 101.012 291.51 97.1061C288.414 95.3073 284.812 94.3809 281.262 94.9561C279.682 95.2369 278.174 95.8387 276.826 96.7259C275.478 97.613 274.318 98.7675 273.415 100.121C271.691 102.676 270.803 106.339 272.16 109.238C272.439 109.887 272.954 110.401 273.596 110.671C274.238 110.941 274.958 110.946 275.604 110.686C276.998 110.122 278.072 108.813 278.752 107.486C279.557 105.922 279.867 104.054 280.124 102.325C280.417 100.41 280.512 98.4696 280.408 96.5348C280.185 92.7983 279.153 89.0348 277.074 85.9237C273.453 80.4926 266.327 76.7909 259.935 79.0181C254.318 80.9751 250.02 87.5989 251.895 93.6514C252.406 95.2996 253.37 96.8397 255.029 97.438C256.522 97.9746 258.257 97.6272 259.591 96.8127C262.763 94.8827 263.545 90.5711 263.844 87.1241C264.199 82.9525 263.644 78.7524 262.219 74.8262C260.925 71.3841 259.072 68.1895 256.738 65.3769C251.986 59.5367 245.73 55.0166 239.425 51.0949C232.596 46.8459 225.327 43.3829 217.751 40.7694C215.891 40.1286 214.017 39.5393 212.13 39.0015C212.041 38.9811 211.947 38.9964 211.869 39.0443C211.791 39.0922 211.734 39.1691 211.709 39.2589C211.685 39.3487 211.696 39.4447 211.739 39.5268C211.782 39.609 211.854 39.671 211.941 39.7002L211.945 39.704Z" fill="#18C4FF"/>
</svg>
