<svg width="170" height="67" viewBox="0 0 195 67" fill="none" xmlns="http://www.w3.org/2000/svg">
<rect x="1.57043" y="1" width="192.232" height="64.9581" rx="29" stroke="#384D6C" stroke-width="2"/>
<g clip-path="url(#clip0_86_454)">
<path d="M156.009 43.1057H151.077C149.737 43.1057 148.65 41.997 148.65 40.6397V28.5665C148.65 27.2051 149.741 26.1005 151.077 26.1005H156.089C156.39 26.1005 156.63 25.856 156.63 25.5503C156.63 25.2446 156.39 25 156.089 25H151.077C149.139 25 147.566 26.6019 147.566 28.5665V40.6397C147.566 42.6084 149.143 44.2062 151.077 44.2062H156.009C156.309 44.2062 156.55 43.9617 156.55 43.656C156.55 43.3503 156.305 43.1057 156.009 43.1057Z" fill="#384D6C"/>
<path d="M164.932 34.2159L161.49 30.7187C161.277 30.5026 160.936 30.5026 160.723 30.7187C160.511 30.9347 160.511 31.2812 160.723 31.4972L163.243 34.0569H152.253C151.952 34.0569 151.711 34.3015 151.711 34.6072C151.711 34.9129 151.952 35.1574 152.253 35.1574H163.243L160.723 37.7172C160.511 37.9332 160.511 38.2797 160.723 38.4957C160.828 38.6017 160.968 38.6588 161.105 38.6588C161.241 38.6588 161.381 38.6058 161.486 38.4957L164.928 34.9985C165.145 34.7784 165.145 34.4278 164.932 34.2159Z" fill="#384D6C"/>
</g>
<path d="M51.8983 41.12C50.8583 41.12 49.8583 40.9533 48.8983 40.62C47.9516 40.2733 47.2183 39.8333 46.6983 39.3L47.2783 38.16C47.7716 38.64 48.4316 39.0467 49.2583 39.38C50.0983 39.7 50.9783 39.86 51.8983 39.86C52.7783 39.86 53.4916 39.7533 54.0383 39.54C54.5983 39.3133 55.0049 39.0133 55.2583 38.64C55.5249 38.2667 55.6583 37.8533 55.6583 37.4C55.6583 36.8533 55.4983 36.4133 55.1783 36.08C54.8716 35.7467 54.4649 35.4867 53.9583 35.3C53.4516 35.1 52.8916 34.9267 52.2783 34.78C51.6649 34.6333 51.0516 34.48 50.4383 34.32C49.8249 34.1467 49.2583 33.92 48.7383 33.64C48.2316 33.36 47.8183 32.9933 47.4983 32.54C47.1916 32.0733 47.0383 31.4667 47.0383 30.72C47.0383 30.0267 47.2183 29.3933 47.5783 28.82C47.9516 28.2333 48.5183 27.7667 49.2783 27.42C50.0383 27.06 51.0116 26.88 52.1983 26.88C52.9849 26.88 53.7649 26.9933 54.5383 27.22C55.3116 27.4333 55.9783 27.7333 56.5383 28.12L56.0383 29.3C55.4383 28.9 54.7983 28.6067 54.1183 28.42C53.4516 28.2333 52.8049 28.14 52.1783 28.14C51.3383 28.14 50.6449 28.2533 50.0983 28.48C49.5516 28.7067 49.1449 29.0133 48.8783 29.4C48.6249 29.7733 48.4983 30.2 48.4983 30.68C48.4983 31.2267 48.6516 31.6667 48.9583 32C49.2783 32.3333 49.6916 32.5933 50.1983 32.78C50.7183 32.9667 51.2849 33.1333 51.8983 33.28C52.5116 33.4267 53.1183 33.5867 53.7183 33.76C54.3316 33.9333 54.8916 34.16 55.3983 34.44C55.9183 34.7067 56.3316 35.0667 56.6383 35.52C56.9583 35.9733 57.1183 36.5667 57.1183 37.3C57.1183 37.98 56.9316 38.6133 56.5583 39.2C56.1849 39.7733 55.6116 40.24 54.8383 40.6C54.0783 40.9467 53.0983 41.12 51.8983 41.12ZM60.043 41V30.5H61.463V41H60.043ZM60.763 28.18C60.4696 28.18 60.223 28.08 60.023 27.88C59.823 27.68 59.723 27.44 59.723 27.16C59.723 26.88 59.823 26.6467 60.023 26.46C60.223 26.26 60.4696 26.16 60.763 26.16C61.0563 26.16 61.303 26.2533 61.503 26.44C61.703 26.6267 61.803 26.86 61.803 27.14C61.803 27.4333 61.703 27.68 61.503 27.88C61.3163 28.08 61.0696 28.18 60.763 28.18ZM69.8941 44.98C68.9341 44.98 68.0141 44.84 67.1341 44.56C66.2541 44.28 65.5407 43.88 64.9941 43.36L65.7141 42.28C66.2074 42.72 66.8141 43.0667 67.5341 43.32C68.2674 43.5867 69.0407 43.72 69.8541 43.72C71.1874 43.72 72.1674 43.4067 72.7941 42.78C73.4207 42.1667 73.7341 41.2067 73.7341 39.9V37.28L73.9341 35.48L73.7941 33.68V30.5H75.1541V39.72C75.1541 41.5333 74.7074 42.86 73.8141 43.7C72.9341 44.5533 71.6274 44.98 69.8941 44.98ZM69.6341 40.6C68.6341 40.6 67.7341 40.3867 66.9341 39.96C66.1341 39.52 65.5007 38.9133 65.0341 38.14C64.5807 37.3667 64.3541 36.48 64.3541 35.48C64.3541 34.48 64.5807 33.6 65.0341 32.84C65.5007 32.0667 66.1341 31.4667 66.9341 31.04C67.7341 30.6133 68.6341 30.4 69.6341 30.4C70.5674 30.4 71.4074 30.5933 72.1541 30.98C72.9007 31.3667 73.4941 31.94 73.9341 32.7C74.3741 33.46 74.5941 34.3867 74.5941 35.48C74.5941 36.5733 74.3741 37.5 73.9341 38.26C73.4941 39.02 72.9007 39.6 72.1541 40C71.4074 40.4 70.5674 40.6 69.6341 40.6ZM69.7741 39.34C70.5474 39.34 71.2341 39.18 71.8341 38.86C72.4341 38.5267 72.9074 38.0733 73.2541 37.5C73.6007 36.9133 73.7741 36.24 73.7741 35.48C73.7741 34.72 73.6007 34.0533 73.2541 33.48C72.9074 32.9067 72.4341 32.46 71.8341 32.14C71.2341 31.8067 70.5474 31.64 69.7741 31.64C69.0141 31.64 68.3274 31.8067 67.7141 32.14C67.1141 32.46 66.6407 32.9067 66.2941 33.48C65.9607 34.0533 65.7941 34.72 65.7941 35.48C65.7941 36.24 65.9607 36.9133 66.2941 37.5C66.6407 38.0733 67.1141 38.5267 67.7141 38.86C68.3274 39.18 69.0141 39.34 69.7741 39.34ZM84.4655 30.4C85.3188 30.4 86.0655 30.5667 86.7055 30.9C87.3588 31.22 87.8655 31.7133 88.2255 32.38C88.5988 33.0467 88.7855 33.8867 88.7855 34.9V41H87.3655V35.04C87.3655 33.9333 87.0855 33.1 86.5255 32.54C85.9788 31.9667 85.2055 31.68 84.2055 31.68C83.4588 31.68 82.8055 31.8333 82.2455 32.14C81.6988 32.4333 81.2721 32.8667 80.9655 33.44C80.6721 34 80.5255 34.68 80.5255 35.48V41H79.1055V30.5H80.4655V33.38L80.2455 32.84C80.5788 32.08 81.1121 31.4867 81.8455 31.06C82.5788 30.62 83.4521 30.4 84.4655 30.4ZM102.135 41.1C101.122 41.1 100.209 40.8733 99.3955 40.42C98.5955 39.9533 97.9621 39.32 97.4955 38.52C97.0288 37.7067 96.7955 36.78 96.7955 35.74C96.7955 34.6867 97.0288 33.76 97.4955 32.96C97.9621 32.16 98.5955 31.5333 99.3955 31.08C100.195 30.6267 101.109 30.4 102.135 30.4C103.175 30.4 104.095 30.6267 104.895 31.08C105.709 31.5333 106.342 32.16 106.795 32.96C107.262 33.76 107.495 34.6867 107.495 35.74C107.495 36.78 107.262 37.7067 106.795 38.52C106.342 39.32 105.709 39.9533 104.895 40.42C104.082 40.8733 103.162 41.1 102.135 41.1ZM102.135 39.84C102.895 39.84 103.569 39.6733 104.155 39.34C104.742 38.9933 105.202 38.5133 105.535 37.9C105.882 37.2733 106.055 36.5533 106.055 35.74C106.055 34.9133 105.882 34.1933 105.535 33.58C105.202 32.9667 104.742 32.4933 104.155 32.16C103.569 31.8133 102.902 31.64 102.155 31.64C101.409 31.64 100.742 31.8133 100.155 32.16C99.5688 32.4933 99.1021 32.9667 98.7555 33.58C98.4088 34.1933 98.2355 34.9133 98.2355 35.74C98.2355 36.5533 98.4088 37.2733 98.7555 37.9C99.1021 38.5133 99.5688 38.9933 100.155 39.34C100.742 39.6733 101.402 39.84 102.135 39.84ZM114.735 41.1C113.841 41.1 113.061 40.9333 112.395 40.6C111.728 40.2667 111.208 39.7667 110.835 39.1C110.475 38.4333 110.295 37.6 110.295 36.6V30.5H111.715V36.44C111.715 37.56 111.988 38.4067 112.535 38.98C113.095 39.54 113.875 39.82 114.875 39.82C115.608 39.82 116.241 39.6733 116.775 39.38C117.321 39.0733 117.735 38.6333 118.015 38.06C118.308 37.4867 118.455 36.8 118.455 36V30.5H119.875V41H118.515V38.12L118.735 38.64C118.401 39.4133 117.881 40.02 117.175 40.46C116.481 40.8867 115.668 41.1 114.735 41.1ZM127.152 41.1C126.165 41.1 125.405 40.8333 124.872 40.3C124.339 39.7667 124.072 39.0133 124.072 38.04V28.18H125.492V37.96C125.492 38.5733 125.645 39.0467 125.952 39.38C126.272 39.7133 126.725 39.88 127.312 39.88C127.939 39.88 128.459 39.7 128.872 39.34L129.372 40.36C129.092 40.6133 128.752 40.8 128.352 40.92C127.965 41.04 127.565 41.1 127.152 41.1ZM122.192 31.68V30.5H128.692V31.68H122.192Z" fill="#384D6C"/>
<defs>
<clipPath id="clip0_86_454">
<rect width="18.0763" height="19.2372" fill="white" transform="translate(147.558 25)"/>
</clipPath>
</defs>
</svg>
