<svg width="40" height="38" viewBox="0 0 43 43" fill="none" xmlns="http://www.w3.org/2000/svg">
<path d="M10.75 43H32.25C34.1508 43 35.9736 42.2449 37.3176 40.9009C38.6616 39.5569 39.4167 37.7341 39.4167 35.8333V21.5C39.4167 19.5993 38.6616 17.7764 37.3176 16.4324C35.9736 15.0884 34.1508 14.3333 32.25 14.3333V10.75C32.25 7.89892 31.1175 5.16462 29.1014 3.1486C27.0854 1.13259 24.3511 0 21.5 0C18.649 0 15.9147 1.13259 13.8986 3.1486C11.8826 5.16462 10.75 7.89892 10.75 10.75V14.3333C8.84932 14.3333 7.02645 15.0884 5.68244 16.4324C4.33843 17.7764 3.58337 19.5993 3.58337 21.5V35.8333C3.58337 37.7341 4.33843 39.5569 5.68244 40.9009C7.02645 42.2449 8.84932 43 10.75 43ZM14.3334 10.75C14.3334 8.84928 15.0884 7.02641 16.4324 5.6824C17.7765 4.33839 19.5993 3.58333 21.5 3.58333C23.4008 3.58333 25.2236 4.33839 26.5676 5.6824C27.9116 7.02641 28.6667 8.84928 28.6667 10.75V14.3333H14.3334V10.75ZM7.16671 21.5C7.16671 20.5496 7.54424 19.6382 8.21624 18.9662C8.88825 18.2942 9.79968 17.9167 10.75 17.9167H32.25C33.2004 17.9167 34.1118 18.2942 34.7838 18.9662C35.4558 19.6382 35.8334 20.5496 35.8334 21.5V35.8333C35.8334 36.7837 35.4558 37.6951 34.7838 38.3671C34.1118 39.0391 33.2004 39.4167 32.25 39.4167H10.75C9.79968 39.4167 8.88825 39.0391 8.21624 38.3671C7.54424 37.6951 7.16671 36.7837 7.16671 35.8333V21.5Z" fill="#777C8C"/>
<path d="M19.7083 31.9204V34.0417C19.7083 34.5169 19.8971 34.9726 20.2331 35.3086C20.5691 35.6446 21.0248 35.8334 21.5 35.8334C21.9752 35.8334 22.4309 35.6446 22.7669 35.3086C23.1029 34.9726 23.2917 34.5169 23.2917 34.0417V31.9204C24.4871 31.4977 25.4946 30.6661 26.1362 29.5724C26.7777 28.4788 27.012 27.1935 26.7976 25.9439C26.5832 24.6942 25.9339 23.5605 24.9645 22.7433C23.9951 21.926 22.768 21.4778 21.5 21.4778C20.2321 21.4778 19.005 21.926 18.0355 22.7433C17.0661 23.5605 16.4168 24.6942 16.2024 25.9439C15.988 27.1935 16.2223 28.4788 16.8638 29.5724C17.5054 30.6661 18.5129 31.4977 19.7083 31.9204ZM21.5 25.0834C21.8544 25.0834 22.2008 25.1885 22.4954 25.3853C22.79 25.5822 23.0197 25.862 23.1553 26.1894C23.2909 26.5168 23.3264 26.877 23.2573 27.2246C23.1881 27.5721 23.0175 27.8914 22.7669 28.1419C22.5163 28.3925 22.1971 28.5632 21.8495 28.6323C21.502 28.7014 21.1418 28.6659 20.8144 28.5303C20.487 28.3947 20.2072 28.1651 20.0103 27.8704C19.8134 27.5758 19.7083 27.2294 19.7083 26.875C19.7083 26.3999 19.8971 25.9442 20.2331 25.6081C20.5691 25.2721 21.0248 25.0834 21.5 25.0834Z" fill="#232323" fill-opacity="0.37"/>
</svg>
