<svg width="41" height="41" viewBox="0 0 41 41" fill="none" xmlns="http://www.w3.org/2000/svg">
<g clip-path="url(#clip0_68_390)">
<path d="M20.5 8.96875C16.6082 8.96875 13.4531 12.1238 13.4531 16.0156C13.4531 19.9074 16.6082 23.0625 20.5 23.0625C24.3918 23.0625 27.5469 19.9074 27.5469 16.0156C27.5469 12.1238 24.3918 8.96875 20.5 8.96875ZM20.5 19.2188C18.7335 19.2188 17.2969 17.7813 17.2969 16.0156C17.2969 14.2459 18.7303 12.8125 20.5 12.8125C22.2697 12.8125 23.7031 14.2491 23.7031 16.0156C23.7031 17.7854 22.2697 19.2188 20.5 19.2188ZM20.5 0C9.17695 0 0 9.17695 0 20.5C0 31.823 9.17695 41 20.5 41C31.823 41 41 31.823 41 20.5C41 9.17695 31.823 0 20.5 0ZM20.5 37.1562C16.7579 37.1562 13.3122 35.9006 10.5303 33.8098C11.9156 31.1504 14.6062 29.4688 17.6332 29.4688H23.374C26.397 29.4688 29.0844 31.1512 30.4753 33.8098C27.691 35.899 24.2396 37.1562 20.5 37.1562ZM33.3285 31.1104C31.1664 27.7311 27.4828 25.625 23.3668 25.625H17.6332C13.5204 25.625 9.8376 27.7271 7.67148 31.1088C5.28195 28.2275 3.84375 24.5279 3.84375 20.5C3.84375 11.315 11.3158 3.84375 20.5 3.84375C29.6842 3.84375 37.1562 11.3158 37.1562 20.5C37.1562 24.5279 35.7148 28.2275 33.3285 31.1104Z" fill="#777C8C"/>
</g>
<defs>
<clipPath id="clip0_68_390">
<rect width="41" height="41" fill="white"/>
</clipPath>
</defs>
</svg>
