<svg width="40" height="40" viewBox="0 0 42 42" fill="none" xmlns="http://www.w3.org/2000/svg">
<g opacity="0.9">
<path d="M21 21C22.8171 21 24.5934 20.4612 26.1043 19.4516C27.6152 18.4421 28.7928 17.0072 29.4881 15.3284C30.1835 13.6496 30.3655 11.8023 30.011 10.0201C29.6565 8.23791 28.7814 6.60086 27.4965 5.31596C26.2116 4.03107 24.5746 3.15604 22.7924 2.80154C21.0102 2.44704 19.1629 2.62898 17.4841 3.32436C15.8053 4.01974 14.3704 5.19733 13.3609 6.7082C12.3513 8.21908 11.8125 9.99539 11.8125 11.8125C11.8125 14.2492 12.7805 16.5861 14.5035 18.309C16.2264 20.032 18.5633 21 21 21ZM21 5.25C22.2979 5.25 23.5667 5.63489 24.6459 6.35598C25.7251 7.07708 26.5663 8.102 27.063 9.30114C27.5597 10.5003 27.6896 11.8198 27.4364 13.0928C27.1832 14.3658 26.5582 15.5351 25.6404 16.4529C24.7226 17.3707 23.5533 17.9957 22.2803 18.2489C21.0073 18.5021 19.6878 18.3722 18.4886 17.8755C17.2895 17.3788 16.2646 16.5376 15.5435 15.4584C14.8224 14.3792 14.4375 13.1104 14.4375 11.8125C14.4375 10.072 15.1289 8.40282 16.3596 7.17212C17.5903 5.94141 19.2595 5.25 21 5.25Z" fill="#01294D"/>
<path d="M22.3125 23.625H19.6875C15.8584 23.625 12.1862 25.1461 9.47865 27.8536C6.77109 30.5612 5.25 34.2334 5.25 38.0625C5.25 38.4106 5.38828 38.7444 5.63442 38.9906C5.88056 39.2367 6.2144 39.375 6.5625 39.375H35.4375C35.7856 39.375 36.1194 39.2367 36.3656 38.9906C36.6117 38.7444 36.75 38.4106 36.75 38.0625C36.75 34.2334 35.2289 30.5612 32.5214 27.8536C29.8138 25.1461 26.1416 23.625 22.3125 23.625ZM7.95375 36.75C8.27649 33.8633 9.65148 31.1968 11.816 29.2599C13.9806 27.3229 16.7829 26.2514 19.6875 26.25H22.3125C25.2171 26.2514 28.0194 27.3229 30.184 29.2599C32.3485 31.1968 33.7235 33.8633 34.0463 36.75H7.95375Z" fill="#01294D"/>
</g>
</svg>
