<svg width="62" height="59" viewBox="0 0 62 59" fill="none" xmlns="http://www.w3.org/2000/svg">
<rect width="62" height="59" rx="10" fill="white" fill-opacity="0.38"/>
<path d="M45.5469 37.1562H39.4219C38.999 37.1562 38.6562 37.499 38.6562 37.9219V44.0469C38.6562 44.4697 38.999 44.8125 39.4219 44.8125H45.5469C45.9697 44.8125 46.3125 44.4697 46.3125 44.0469V37.9219C46.3125 37.499 45.9697 37.1562 45.5469 37.1562Z" fill="black"/>
<path d="M37.8906 31.0312H33.2969C32.874 31.0312 32.5312 31.374 32.5312 31.7969V36.3906C32.5312 36.8135 32.874 37.1562 33.2969 37.1562H37.8906C38.3135 37.1562 38.6562 36.8135 38.6562 36.3906V31.7969C38.6562 31.374 38.3135 31.0312 37.8906 31.0312Z" fill="black"/>
<path d="M51.6719 44.8125H47.0781C46.6553 44.8125 46.3125 45.1553 46.3125 45.5781V50.1719C46.3125 50.5947 46.6553 50.9375 47.0781 50.9375H51.6719C52.0947 50.9375 52.4375 50.5947 52.4375 50.1719V45.5781C52.4375 45.1553 52.0947 44.8125 51.6719 44.8125Z" fill="black"/>
<path d="M51.6719 31.0312H48.6094C48.1865 31.0312 47.8438 31.374 47.8438 31.7969V34.8594C47.8438 35.2822 48.1865 35.625 48.6094 35.625H51.6719C52.0947 35.625 52.4375 35.2822 52.4375 34.8594V31.7969C52.4375 31.374 52.0947 31.0312 51.6719 31.0312Z" fill="black"/>
<path d="M36.3594 46.3438H33.2969C32.874 46.3438 32.5312 46.6865 32.5312 47.1094V50.1719C32.5312 50.5947 32.874 50.9375 33.2969 50.9375H36.3594C36.7822 50.9375 37.125 50.5947 37.125 50.1719V47.1094C37.125 46.6865 36.7822 46.3438 36.3594 46.3438Z" fill="black"/>
<path d="M45.5469 14.1875H39.4219C38.999 14.1875 38.6562 14.5303 38.6562 14.9531V21.0781C38.6562 21.501 38.999 21.8438 39.4219 21.8438H45.5469C45.9697 21.8438 46.3125 21.501 46.3125 21.0781V14.9531C46.3125 14.5303 45.9697 14.1875 45.5469 14.1875Z" fill="black"/>
<path d="M49.375 9.59375H35.5938C34.7481 9.59375 34.0625 10.2793 34.0625 11.125V24.9062C34.0625 25.7519 34.7481 26.4375 35.5938 26.4375H49.375C50.2207 26.4375 50.9062 25.7519 50.9062 24.9062V11.125C50.9062 10.2793 50.2207 9.59375 49.375 9.59375Z" stroke="black" stroke-width="2" stroke-linecap="round" stroke-linejoin="round"/>
<path d="M22.5781 14.1875H16.4531C16.0303 14.1875 15.6875 14.5303 15.6875 14.9531V21.0781C15.6875 21.501 16.0303 21.8438 16.4531 21.8438H22.5781C23.001 21.8438 23.3438 21.501 23.3438 21.0781V14.9531C23.3438 14.5303 23.001 14.1875 22.5781 14.1875Z" fill="black"/>
<path d="M26.4062 9.59375H12.625C11.7793 9.59375 11.0938 10.2793 11.0938 11.125V24.9062C11.0938 25.7519 11.7793 26.4375 12.625 26.4375H26.4062C27.2519 26.4375 27.9375 25.7519 27.9375 24.9062V11.125C27.9375 10.2793 27.2519 9.59375 26.4062 9.59375Z" stroke="black" stroke-width="2" stroke-linecap="round" stroke-linejoin="round"/>
<path d="M22.5781 37.1562H16.4531C16.0303 37.1562 15.6875 37.499 15.6875 37.9219V44.0469C15.6875 44.4697 16.0303 44.8125 16.4531 44.8125H22.5781C23.001 44.8125 23.3438 44.4697 23.3438 44.0469V37.9219C23.3438 37.499 23.001 37.1562 22.5781 37.1562Z" fill="black"/>
<path d="M26.4062 32.5625H12.625C11.7793 32.5625 11.0938 33.2481 11.0938 34.0938V47.875C11.0938 48.7207 11.7793 49.4062 12.625 49.4062H26.4062C27.2519 49.4062 27.9375 48.7207 27.9375 47.875V34.0938C27.9375 33.2481 27.2519 32.5625 26.4062 32.5625Z" stroke="black" stroke-width="2" stroke-linecap="round" stroke-linejoin="round"/>
</svg>
