<svg width="39" height="39" viewBox="0 0 44 43" fill="none" xmlns="http://www.w3.org/2000/svg">
<g opacity="0.9">
<path d="M24.776 42.795H18.3063C17.9092 42.795 17.5261 42.6491 17.2309 42.3854C16.9357 42.1216 16.7492 41.7586 16.7074 41.3663L16.2283 36.8856C15.5596 36.6596 14.9063 36.3907 14.2725 36.0808L10.7478 38.9125C10.4393 39.1594 10.0499 39.2843 9.65439 39.2635C9.25884 39.2427 8.88495 39.0775 8.60445 38.7997L4.02949 34.2551C3.74981 33.9765 3.58354 33.6051 3.56257 33.2122C3.54161 32.8192 3.66743 32.4325 3.91589 32.126L6.76761 28.6205C6.4551 27.991 6.18411 27.342 5.95635 26.6777L1.43818 26.1986C1.04349 26.1571 0.678219 25.972 0.412696 25.6789C0.147174 25.3859 0.000173438 25.0056 0 24.6114V18.1836C0.000173438 17.7893 0.147174 17.4091 0.412696 17.116C0.678219 16.823 1.04349 16.6379 1.43818 16.5964L5.94885 16.1205C6.17661 15.4561 6.4476 14.8072 6.76011 14.1777L3.90839 10.6721C3.65992 10.3657 3.53411 9.97891 3.55507 9.58599C3.57604 9.19306 3.7423 8.82166 4.02198 8.54303L8.59695 3.99846C8.87745 3.72064 9.25134 3.55547 9.64689 3.53465C10.0424 3.51382 10.4318 3.6388 10.7403 3.88561L14.2693 6.71732C14.9031 6.40742 15.5564 6.13859 16.2251 5.91252L16.7041 1.43182C16.7453 1.03845 16.9319 0.674234 17.2279 0.409717C17.5239 0.145201 17.9082 -0.000795506 18.3063 3.26036e-06H24.776C25.1731 -8.73412e-05 25.5561 0.145818 25.8514 0.409601C26.1466 0.673385 26.3331 1.03638 26.3749 1.42863L26.8529 5.90933C27.522 6.1354 28.1756 6.40422 28.8098 6.71413L32.3377 3.88242C32.6462 3.63561 33.0356 3.51063 33.4311 3.53145C33.8267 3.55228 34.2005 3.71744 34.481 3.99526L39.056 8.53983C39.3357 8.81847 39.502 9.18987 39.5229 9.58279C39.5439 9.97572 39.4181 10.3625 39.1696 10.6689L36.3179 14.1745C36.6299 14.8042 36.9009 15.4531 37.1291 16.1173L41.6398 16.5932C42.0343 16.6349 42.3993 16.8201 42.6646 17.1132C42.9299 17.4062 43.0768 17.7863 43.0769 18.1804V24.6082C43.0777 25.0022 42.9318 25.3825 42.6673 25.6761C42.4028 25.9697 42.0384 26.1558 41.6441 26.1986L37.1334 26.6745C36.9052 27.3387 36.6342 27.9876 36.3222 28.6173L39.1739 32.1228C39.4224 32.4293 39.5482 32.8161 39.5272 33.209C39.5062 33.6019 39.34 33.9733 39.0603 34.2519L34.4853 38.7997C34.2048 39.0775 33.8309 39.2427 33.4354 39.2635C33.0398 39.2843 32.6505 39.1594 32.342 38.9125L28.814 36.0808C28.1799 36.3907 27.5262 36.6596 26.8572 36.8856L26.3792 41.3663C26.3373 41.7593 26.1502 42.1229 25.8541 42.3868C25.5579 42.6507 25.1738 42.7961 24.776 42.795ZM19.7498 39.6013H23.3282L23.7665 35.4964C23.8009 35.1751 23.9326 34.8717 24.1442 34.6263C24.3558 34.381 24.6374 34.2051 24.9517 34.1221C26.084 33.8221 27.171 33.3735 28.1839 32.7882C28.4659 32.6249 28.7913 32.5509 29.1167 32.5758C29.4421 32.6007 29.7522 32.7234 30.0057 32.9276L33.2379 35.5219L35.7681 33.0085L33.1522 29.8074C32.9466 29.5556 32.823 29.2476 32.7979 28.9243C32.7729 28.601 32.8475 28.2778 33.0118 27.9977C33.5998 26.9922 34.05 25.9131 34.3503 24.7891C34.434 24.4767 34.6111 24.1969 34.8584 23.9867C35.1056 23.7764 35.4113 23.6457 35.7349 23.6117L39.8662 23.1753V19.6207L35.7349 19.1843C35.4113 19.1503 35.1056 19.0196 34.8584 18.8093C34.6111 18.5991 34.434 18.3193 34.3503 18.0069C34.0501 16.8826 33.5999 15.8031 33.0118 14.7973C32.8475 14.5171 32.7729 14.1939 32.7979 13.8707C32.823 13.5474 32.9466 13.2394 33.1522 12.9875L35.7638 9.77684L33.2336 7.26344L30.0015 9.85775C29.7479 10.062 29.4379 10.1847 29.1124 10.2096C28.787 10.2345 28.4616 10.1604 28.1796 9.9972C27.1672 9.41349 26.0809 8.96635 24.9496 8.66758C24.6352 8.58452 24.3537 8.40868 24.142 8.1633C23.9304 7.91792 23.7987 7.61455 23.7643 7.29324L23.3303 3.19366H19.7498L19.3115 7.29857C19.2771 7.62 19.1452 7.92348 18.9334 8.16888C18.7215 8.41427 18.4397 8.59003 18.1252 8.6729C16.9947 8.97303 15.9095 9.42161 14.8984 10.0068C14.6164 10.17 14.291 10.2441 13.9656 10.2192C13.6401 10.1943 13.33 10.0716 13.0765 9.86733L9.84759 7.26876L7.31845 9.78216L9.93118 12.9928C10.1366 13.2448 10.26 13.5529 10.2849 13.8761C10.3097 14.1994 10.235 14.5225 10.0705 14.8026C9.48335 15.8085 9.03324 16.8875 8.73198 18.0111C8.64837 18.3234 8.47136 18.6031 8.22433 18.8133C7.97731 19.0235 7.67191 19.1544 7.34845 19.1885L3.21609 19.625V23.1785L7.34845 23.6149C7.67191 23.6491 7.97731 23.7799 8.22433 23.9902C8.47136 24.2004 8.64837 24.4801 8.73198 24.7923C9.03317 25.9148 9.48291 26.9927 10.0694 27.9977C10.2339 28.2777 10.3087 28.6009 10.2838 28.9241C10.2589 29.2474 10.1355 29.5555 9.93011 29.8074L7.31845 33.0128L9.84866 35.5262L13.0819 32.9319C13.3354 32.7277 13.6455 32.6049 13.9709 32.58C14.2964 32.5551 14.6217 32.6292 14.9037 32.7924C15.9157 33.3763 17.0016 33.8235 18.1327 34.1221C18.4472 34.2049 18.729 34.3807 18.9409 34.6261C19.1527 34.8715 19.2846 35.175 19.319 35.4964L19.7498 39.6013Z" fill="#01294D"/>
<path d="M21.5406 31.1232C19.6043 31.123 17.7114 30.5524 16.1015 29.4836C14.4915 28.4148 13.2368 26.8958 12.4959 25.1186C11.755 23.3415 11.5613 21.386 11.9392 19.4994C12.3171 17.6129 13.2496 15.88 14.619 14.52C15.9883 13.1599 17.7328 12.2337 19.632 11.8586C21.5312 11.4834 23.4998 11.676 25.2887 12.4122C27.0777 13.1483 28.6068 14.3949 29.6825 15.9943C30.7583 17.5936 31.3325 19.474 31.3325 21.3975C31.3297 23.9762 30.2971 26.4485 28.4613 28.2719C26.6256 30.0952 24.1366 31.1207 21.5406 31.1232ZM21.5406 14.8654C20.2401 14.8656 18.9689 15.2489 17.8876 15.9668C16.8064 16.6847 15.9637 17.7049 15.4662 18.8985C14.9686 20.0921 14.8386 21.4055 15.0924 22.6725C15.3463 23.9395 15.9726 25.1033 16.8923 26.0168C17.812 26.9302 18.9837 27.5522 20.2592 27.8041C21.5348 28.0561 22.8569 27.9267 24.0584 27.4323C25.2599 26.9378 26.2868 26.1006 27.0093 25.0264C27.7319 23.9522 28.1175 22.6894 28.1175 21.3975C28.1155 19.6655 27.4219 18.005 26.1889 16.7804C24.9559 15.5558 23.2842 14.8671 21.5406 14.8654Z" fill="#01294D"/>
</g>
</svg>
