<svg width="19" height="20" viewBox="0 0 19 20" fill="none" xmlns="http://www.w3.org/2000/svg">
<g clip-path="url(#clip0_86_456)">
<path d="M9.00851 18.1057H4.07723C2.73707 18.1057 1.6497 16.997 1.6497 15.6397V3.56652C1.6497 2.20513 2.74108 1.10053 4.07723 1.10053H9.08876C9.38969 1.10053 9.63043 0.855965 9.63043 0.550263C9.63043 0.244561 9.38969 0 9.08876 0H4.07723C2.13922 0 0.566345 1.60188 0.566345 3.56652V15.6397C0.566345 17.6084 2.14323 19.2062 4.07723 19.2062H9.00851C9.30944 19.2062 9.55019 18.9617 9.55019 18.656C9.55019 18.3503 9.30543 18.1057 9.00851 18.1057Z" fill="#FFFFFF"/>
<path d="M17.9325 9.21589L14.4898 5.71866C14.2771 5.50263 13.9361 5.50263 13.7234 5.71866C13.5108 5.93469 13.5108 6.28115 13.7234 6.49718L16.2432 9.05692H5.25317C4.95223 9.05692 4.71149 9.30149 4.71149 9.60719C4.71149 9.91289 4.95223 10.1574 5.25317 10.1574H16.2432L13.7234 12.7172C13.5108 12.9332 13.5108 13.2797 13.7234 13.4957C13.8277 13.6017 13.9682 13.6588 14.1046 13.6588C14.241 13.6588 14.3815 13.6058 14.4858 13.4957L17.9284 9.99849C18.1451 9.77838 18.1451 9.42784 17.9325 9.21589Z" fill="#FFFFFF"/>
</g>
<defs>
<clipPath id="clip0_86_456">
<rect width="18.0763" height="19.2372" fill="white" transform="translate(0.557861)"/>
</clipPath>
</defs>
</svg>
